<svg width="443" height="349" viewBox="0 0 443 349" fill="none" xmlns="http://www.w3.org/2000/svg">
<path d="M167.2 49.2002C166.9 48.7002 166.4 48.6002 165.9 48.8002C165 45.7002 163.4 42.7002 160.9 39.7002C155.1 32.6002 145.9 26.9002 137.3 24.1002C131.3 22.1002 124.9 21.8002 118.8 20.3002C113.7 19.1002 109.2 16.5002 103.9 15.9002C103.5 15.9002 103.3 16.0002 103.1 16.2002C98.1002 14.5002 92.4002 14.1002 87.6002 13.5002C82.6002 12.9002 77.6002 12.3002 72.5002 11.8002C69.2002 11.5002 65.8002 11.5002 62.5002 11.8002C59.1002 12.1002 55.9002 13.5002 52.4002 12.8002C51.8002 12.7002 51.4002 13.0002 51.2002 13.5002C50.9002 13.5002 50.6002 13.5002 50.4002 13.8002L50.3002 13.9002C49.7002 13.8002 49.0002 14.2002 49.1002 14.9002C46.7002 17.0002 44.2002 18.9002 41.9002 20.9002C39.0002 23.4002 37.1002 26.4002 35.0002 29.5002C24.9002 39.2002 20.3002 52.2002 16.0002 65.5002C10.9002 75.7002 6.00018 85.9002 3.30018 97.1002C3.30018 97.2002 3.20017 97.2002 3.20017 97.3002C3.00017 97.6002 3.00018 97.8002 3.10018 98.1002C2.70018 99.9002 2.30017 101.6 2.00017 103.4C0.300173 114.1 2.00018 130.4 15.8002 131.3C23.3002 131.8 31.0002 126.3 35.8002 119.8C36.2002 119.8 36.5002 119.6 36.7002 119.1C36.9002 118.6 37.1002 118 37.3002 117.5C38.5002 115.5 39.5002 113.4 40.0002 111.4C40.2002 110.8 39.8002 110.4 39.4002 110.2C40.8002 104.1 41.3002 97.8002 42.3002 91.6002C43.8002 82.0002 45.5002 72.5002 46.7002 62.9002C47.8002 54.0002 48.9002 45.4002 50.7002 36.7002C51.9002 30.5002 52.9002 24.1002 51.8002 17.8002C60.6002 33.0002 65.9002 49.7002 69.0002 66.9002C70.6002 75.9002 71.5002 85.0002 72.2002 94.1002C72.7002 100.7 71.2002 107.4 72.2002 113.9C73.8002 124.5 91.0002 119.7 97.2002 117.7C107.3 114.5 117.6 108.1 116.4 96.2002C116.4 95.8002 116.1 95.5002 115.8 95.3002C115.9 89.9002 113.3 84.7002 110.5 79.7002C109.2 74.6002 106.2 70.0002 102.5 66.2002C102.5 66.2002 102.5 66.2002 102.4 66.2002C95.5002 54.1002 85.9002 42.8002 74.2002 35.2002C73.3002 34.3002 72.3002 33.4002 71.4002 32.5002C67.9002 29.3002 64.2002 26.6002 61.0002 23.1002C58.9002 20.8002 56.8002 18.4002 54.5002 16.4002C63.3002 18.5002 72.5002 19.6002 81.0002 22.5002C86.1002 24.2002 91.0002 26.4002 95.9002 28.5002C96.0002 28.7002 96.1002 28.9002 96.3002 29.1002C101.9 33.1002 108.2 35.6002 114.5 38.3002C120.9 41.1002 126.5 44.6002 131.7 49.2002C136.9 53.8002 141.3 59.2002 144.5 65.4002C146.2 68.6002 147.1 72.2002 147.5 75.8002C147.7 77.9002 147.1 79.9002 146.7 81.9002C146.4 82.1002 146.2 82.2002 145.9 82.4002C145.1 82.9002 145.4 84.4002 146.4 84.3002V84.4002C146.4 85.7002 148.4 85.7002 148.4 84.4002C148.4 84.2002 148.4 84.1002 148.4 83.9002C154.8 82.0002 159.6 75.4002 162.9 70.1002C166.8 64.5002 171 55.6002 167.2 49.2002ZM28.2002 41.8002C26.5002 45.1002 24.8002 48.5002 23.2002 51.9002C24.6002 48.4002 26.2002 45.0002 28.2002 41.8002ZM12.3002 77.9002C11.0002 81.8002 9.50018 85.6002 7.80018 89.4002C9.00018 85.4002 10.6002 81.6002 12.3002 77.9002Z" fill="#E1395B"/>
<path d="M72.9002 85.2002C71.8002 77.8002 70.1002 70.3002 68.3002 63.0002C65.9002 47.6002 61.6002 32.4002 53.1002 19.5002C53.0002 19.4002 53.0002 19.4002 52.9002 19.3002C52.9002 19.2002 52.9002 19.2002 52.9002 19.1002C52.7002 17.8002 50.7002 18.4002 51.0002 19.6002C52.1002 25.4002 51.4002 31.3002 50.7002 37.1002C49.9002 43.6002 49.5002 50.1002 48.9002 56.6002C47.5002 70.6002 44.4002 84.7002 41.3002 98.4002C40.1002 103.9 38.6002 109.3 36.9002 114.6C36.1002 117.1 35.2002 119.9 36.2002 122.5C38.4002 128.2 51.1002 128.9 56.0002 128C75.1002 124.6 75.2002 100.1 72.9002 85.2002Z" fill="#92A6C1"/>
<path d="M145.8 72.7002C144.9 62.1002 136.4 52.0002 128.3 45.8002C117.8 37.9002 105.4 33.0002 93.5003 27.7002C87.2003 24.9002 80.7003 22.5002 74.3003 20.0002C69.2003 18.1002 63.4003 18.1002 58.5003 15.8002C58.0003 15.6002 57.6003 15.8002 57.3003 16.1002C56.5003 15.9002 55.6003 16.7002 56.2003 17.5002C59.5003 22.5002 64.3003 26.2002 68.7003 30.2002C74.3003 35.2002 80.1003 39.9002 85.6003 45.0002C96.9003 55.7002 105.4 69.2002 111.7 83.3002C113.3 86.9002 114.7 90.6002 115.9 94.3002C116.6 96.4002 116.9 98.7002 118 100.7C119.5 103.3 123.7 102.5 125.8 101.5C125.9 101.4 126.1 101.4 126.2 101.3C126.3 101.3 126.3 101.3 126.4 101.3C128.5 101.2 130.3 100.2 131.8 98.8002C131.7 99.7002 132.8 100.5 133.4 99.7002C136.5 95.9002 140.1 92.5002 142.9 88.4002C145.9 83.8002 146.3 78.0002 145.8 72.7002Z" fill="#92A6C1"/>
<path d="M149.7 28.6002C143.7 25.7002 137.2 23.8002 130.8 22.1002C121.8 19.7002 113 17.0002 103.9 15.1002C86.8001 11.6002 68.9001 9.90016 51.7001 13.1002C51.2001 13.2002 51.0001 13.5002 51.0001 13.8002C50.5001 14.0002 50.1001 14.6002 50.4001 15.2002C50.6001 15.5002 50.7001 15.8002 50.9001 16.1002C50.0001 29.6002 49.3001 43.2002 47.4001 56.7002C45.5001 70.2002 42.2001 83.6002 40.0001 97.1002C38.3001 107.7 37.3001 120.9 27.7001 127.5C20.8001 132.3 11.1001 131.8 5.90007 124.8C0.100067 117 2.50007 105.8 4.70007 97.2002C7.20007 87.4002 11.2001 78.0002 15.0001 68.6002C22.7001 49.7002 31.2001 27.0002 49.8001 16.2002C50.9001 15.6002 49.9001 13.8002 48.8001 14.5002C29.8001 25.6002 21.0001 48.7002 13.1001 68.1002C8.70008 78.8002 4.40008 89.5002 1.80008 100.8C-0.199924 109.5 -0.799924 119.2 4.80008 126.6C13.1001 137.7 28.1001 132.3 34.9001 122.6C39.4001 129.7 52.0001 129.3 59.1001 128.2C65.9001 127.1 69.7001 122.9 71.8001 117.4C77.8001 124.8 89.6001 121.8 97.9001 119.2C97.9001 119.3 97.9001 119.4 97.9001 119.5C103.8 137.7 110.5 155.5 117.6 173.3C121.1 182.2 124.8 191 128.4 199.8C130.4 204.5 132.3 209.2 134.3 213.9C135.3 216.2 136.3 218.6 137.3 220.9C138.1 222.8 140.2 226 140.2 228C140.2 228.4 140.4 228.6 140.6 228.8C140.7 229.3 141.1 229.9 141.8 229.7C143.9 229.1 145.6 228.4 147.9 228.4C148.5 228.4 149.1 227.7 148.9 227.1C141.5 209.4 133.1 192 125.2 174.5C121.2 165.6 118.1 156.4 114.3 147.5C110.1 137.6 105.9 127.7 103.9 117.1C110.3 114.2 115.8 109.4 117.7 103C127 105.2 137.2 97.6002 142.5 90.6002C143.3 89.6002 143.9 88.6002 144.5 87.5002C144.5 87.5002 144.6 87.5002 144.6 87.4002C147.1 84.9002 151.1 83.4002 154.1 81.4002C156.8 79.6002 159.2 77.4002 161.5 75.1002C165.6 70.9002 168.7 65.2002 169.4 59.4002C171.2 44.9002 161.9 34.6002 149.7 28.6002ZM62.3001 125.4C55.5001 127.9 40.0001 128.6 36.2001 120.8C36.8001 119.8 37.3001 118.7 37.7001 117.6C42.8001 103 43.1001 87.0002 46.6001 72.0002C50.1001 57.2002 51.3001 42.0002 52.3001 26.8002C52.5001 24.4002 52.6001 22.0002 52.8001 19.5002C64.8001 43.6002 71.9001 69.6002 72.7001 96.6002C72.8001 105.8 72.8001 121.6 62.3001 125.4ZM110.6 143.4C114.4 152.3 117.6 161.5 121.4 170.4C129.4 189.2 138.6 207.6 146.5 226.4C145 226.6 143.7 227 142.3 227.4C142 224.6 139.6 221 138.6 218.6C136.6 213.9 134.7 209.2 132.7 204.6C128.8 195.2 124.9 185.8 121.1 176.4C113.5 157.5 106.3 138.4 100 119.1C100 119 99.9001 118.8 99.8001 118.7C100 118.6 100.2 118.6 100.4 118.5C101 118.3 101.6 118.1 102.2 117.9C103.8 126.7 107.1 135.1 110.6 143.4ZM115.9 100.3C115 100.3 114.7 101.7 115.6 102.2C114.6 106.4 112 110.2 107 113.3C99.3001 118.1 79.3001 125.1 72.9001 115.4C72.8001 115.3 72.7001 115.2 72.7001 115.1C73.5001 112.5 74.0001 109.8 74.3001 107C75.9001 93.0002 73.7001 77.8002 70.9001 64.0002C67.5001 47.4002 61.3001 31.4002 53.5001 16.3002C61.5001 25.9002 71.7001 33.2002 80.8001 41.7002C86.1001 46.7002 90.4001 52.5002 94.9001 58.2002C100.3 65.1002 105.6 72.0002 110 79.5002C113.9 86.4002 116.7 93.7002 115.9 100.3ZM143.8 84.8002C143.6 85.3002 143.4 85.7002 143.1 86.2002L143 86.3002C138.6 94.4002 127.6 103 118.2 100.9C118.5 99.0002 118.5 97.0002 118.2 94.9002C115.4 77.8002 101 63.3002 90.8001 50.0002C80.7001 36.9002 66.0001 28.3002 55.4001 15.7002C80.6001 23.2002 107 33.0002 128.2 48.7002C139.4 57.1002 150.1 70.4002 143.8 84.8002ZM158.3 75.6002C154.8 78.9002 150.3 80.8002 146.4 83.5002C149.4 74.8002 146.6 65.6002 140.4 57.8002C130.7 45.3002 114.9 37.8002 101 31.1002C86.8001 24.3002 72.0001 18.9002 56.9001 14.3002C85.1001 10.5002 115.2 18.3002 141.5 27.4002C154.9 32.1002 167.8 41.0002 167.7 56.7002C167.7 64.1002 163.4 70.6002 158.3 75.6002Z" fill="#333333"/>
<path d="M17.6002 106C17.5002 106.1 17.4002 106.3 17.2002 106.4C16.7002 106.6 16.5002 107.2 16.6002 107.6C16.8002 108.2 17.3002 108.4 17.8002 108.3C18.4002 108.2 18.6002 107.8 18.9002 107.4C19.9002 106.4 18.5002 105 17.6002 106Z" fill="white"/>
<path d="M24.3002 74.3C23.0002 74.3 23.0002 76.3 24.3002 76.3C25.6002 76.3 25.6002 74.3 24.3002 74.3Z" fill="white"/>
<path d="M33.7001 95.3C32.4001 95.3 32.4001 97.3 33.7001 97.3C35.0001 97.3 35.0001 95.3 33.7001 95.3Z" fill="white"/>
<path d="M36.0004 40C35.6004 40.5 35.4004 41 35.4004 41.7C35.4004 43 37.4004 43 37.4004 41.7C37.4004 41.6 37.4004 41.5 37.4004 41.4C38.2004 40.4 36.8004 39 36.0004 40Z" fill="white"/>
<path d="M56.3003 105.3V106C56.3003 107.3 58.3003 107.3 58.3003 106V105.3C58.3003 104 56.3003 104 56.3003 105.3Z" fill="white"/>
<path d="M50.7004 89.7C49.9004 89.7 49.3004 89.8 48.7004 90.3C48.3004 90.7 48.3004 91.4 48.7004 91.7C49.1004 92.1 49.7004 92.1 50.1004 91.7C50.2004 91.7 50.5004 91.7 50.7004 91.7C52.0004 91.7 52.0004 89.7 50.7004 89.7Z" fill="white"/>
<path d="M66 79.6002C65.9 79.5002 65.8 79.4001 65.8 79.4001C65.7 79.3001 65.6 79.1001 65.7 79.4001C65.6 78.9001 65.3 78.4001 64.7 78.4001C64.2 78.4001 63.6 78.9001 63.7 79.4001C63.8 80.1001 64.2 80.6002 64.7 81.1002C65.5 82.0002 67 80.5002 66 79.6002Z" fill="white"/>
<path d="M56.4002 50.0001C56.3002 49.9001 56.1002 49.8001 56.0002 49.6001C55.8002 49.1001 55.2002 48.9001 54.8002 49.0001C54.2002 49.2001 54.0002 49.7001 54.1002 50.2001C54.2002 50.8001 54.6002 51.0001 55.0002 51.3001C55.9002 52.2001 57.3002 50.8001 56.4002 50.0001Z" fill="white"/>
<path d="M77.3002 51.3C76.0002 51.3 76.0002 53.3 77.3002 53.3C78.6002 53.3 78.6002 51.3 77.3002 51.3Z" fill="white"/>
<path d="M86.0001 101.3C85.9001 101.4 85.8001 101.6 85.6001 101.7C85.1001 101.9 84.9001 102.5 85.0001 102.9C85.2001 103.5 85.7001 103.7 86.2001 103.6C86.8001 103.5 87.0001 103.1 87.3001 102.7C88.2001 101.7 86.8001 100.3 86.0001 101.3Z" fill="white"/>
<path d="M105 93.3C103.7 93.3 103.7 95.3 105 95.3C106.3 95.3 106.3 93.3 105 93.3Z" fill="white"/>
<path d="M87.7003 72.3H87.4003C86.1003 72.3 86.1003 74.3 87.4003 74.3H87.7003C89.0003 74.3 89.0003 72.3 87.7003 72.3Z" fill="white"/>
<path d="M77.0001 29.3H76.7001C75.4001 29.3 75.4001 31.3 76.7001 31.3H77.0001C78.3001 31.3 78.3001 29.3 77.0001 29.3Z" fill="white"/>
<path d="M112.3 39.7C111 39.7 111 41.7 112.3 41.7C113.6 41.7 113.6 39.7 112.3 39.7Z" fill="white"/>
<path d="M97.7001 47.3C96.4001 47.3 96.4001 49.3 97.7001 49.3C99.0001 49.3 99.0001 47.3 97.7001 47.3Z" fill="white"/>
<path d="M120.7 79C119.4 79 119.4 81 120.7 81C122 81 122 79 120.7 79Z" fill="white"/>
<path d="M136.4 82.2001C136.3 82.2001 136.3 82.3001 136.4 82.2001C135.4 83.2001 136.8 84.6001 137.8 83.7001C138.2 83.3001 138.4 82.9001 138.4 82.3001C138.3 81.1001 136.5 81.1001 136.4 82.2001Z" fill="white"/>
<path d="M117.3 60C116 60 116 62 117.3 62C118.6 62 118.6 60 117.3 60Z" fill="white"/>
<path d="M90 18.3C89.2 18.3 88.8 18.9 88.7 19.6C88.6 20.1 89.2 20.6 89.7 20.6C90.1 20.6 90.4 20.4 90.5 20.1C91.2 19.7 91.1 18.3 90 18.3Z" fill="white"/>
<path d="M111.3 27.6999C110.4 27.3999 109.5 28.5999 110.3 29.3999C111 30.0999 111.7 30.0999 112.4 29.3999C113.2 28.5999 112.2 27.3999 111.3 27.6999Z" fill="white"/>
<path d="M131 26.7C129.7 26.7 129.7 28.7 131 28.7C132.3 28.7 132.3 26.7 131 26.7Z" fill="white"/>
<path d="M140.3 46.3C139 46.3 139 48.3 140.3 48.3C141.6 48.3 141.6 46.3 140.3 46.3Z" fill="white"/>
<path d="M152.3 70C151.8 70 151.4 70.4 151.3 70.9C151.3 70.9 151.3 70.9 151.3 71C150.4 71.9 151.8 73.3 152.7 72.4C153.1 72 153.3 71.6 153.3 71C153.4 70.5 152.8 70 152.3 70Z" fill="white"/>
<path d="M160.8 50.5C160.3 49.8 158.9 49.9 159 51C159 51.8 159.5 52.3 160.3 52.3C161.4 52.3 161.6 50.9 160.8 50.5Z" fill="white"/>
<path d="M148 36.7C146.7 36.7 146.7 38.7 148 38.7C149.3 38.7 149.3 36.7 148 36.7Z" fill="white"/>
<path d="M45 24.7001V25.4001C45 26.7001 47 26.7001 47 25.4001V24.7001C47 23.4001 45 23.4001 45 24.7001Z" fill="white"/>
<path d="M34.7001 58C33.4001 58 33.4001 60 34.7001 60C36.0001 60 36.0001 58 34.7001 58Z" fill="white"/>
<path d="M57.3001 69.7H56.7001C55.4001 69.7 55.4001 71.7 56.7001 71.7H57.3001C58.6001 71.7 58.6001 69.7 57.3001 69.7Z" fill="white"/>
<path d="M68.0004 36C66.7004 36 66.7004 38 68.0004 38C69.3004 38 69.3004 36 68.0004 36Z" fill="white"/>
<path d="M51.7001 120C51.6001 119.9 51.5001 119.8 51.4001 119.7C50.5001 118.8 49.1001 120.2 50.0001 121.1C50.1001 121.2 50.2001 121.3 50.3001 121.4C51.2001 122.3 52.6001 120.9 51.7001 120Z" fill="white"/>
<path d="M98.7002 109.7V110C98.7002 111.3 100.7 111.3 100.7 110V109.7C100.7 108.4 98.7002 108.4 98.7002 109.7Z" fill="white"/>
<path d="M18.0001 123.3C16.7001 123.3 16.7001 125.3 18.0001 125.3C19.3001 125.3 19.3001 123.3 18.0001 123.3Z" fill="white"/>
<path d="M320.1 108.9C319.8 108.7 319.5 108.6 319.3 108.7C319.2 108.4 318.9 108.1 318.4 108.1C309.7 108.3 301.8 104.2 293.2 104.1C292.9 104.1 292.7 104.2 292.5 104.5C283 102 273.7 98.5999 264.2 96.1999C257.6 94.4999 250.9 92.9999 244.5 90.7999C239.5 89.0999 235.3 85.4999 230.1 84.3999C229.6 83.8999 229.2 83.1999 229 82.5999C228.8 81.9999 228.1 81.7999 227.6 81.9999C227.1 81.7999 226.4 81.8999 226.3 82.5999C223.3 94.6999 220.9 106.9 217.2 118.9C213.2 131.8 208.2 144.3 201.6 156.1C201.4 156.4 201.4 156.7 201.6 157C200.5 158.7 199.3 160.4 198.5 162.4C198.4 162.5 198.4 162.7 198.5 162.8C196.8 165.4 195.2 168 194.1 171C190 177.3 186.2 183.8 181.3 189.6C180.4 190.5 179.5 191.3 178.5 192.1C178.1 192.4 178 192.9 178.1 193.3C172.8 198.9 166.7 203.8 160.5 208.3C158 210.1 155.4 211.8 152.7 213.3C150.9 214 149.2 215.1 147.5 216C146.7 216.4 145.9 216.8 145 217.1C139.3 219 133 220.5 126.8 220.7C126.3 220.5 125.9 220.4 125.4 220.1C124.7 219.7 124.1 220.2 124 220.7C122.9 220.9 123 222.6 124.2 222.7C124.3 222.7 124.3 222.7 124.4 222.7C126.8 224.2 128.4 226.5 130.2 228.7C131.9 230.7 134.3 232.3 136.4 233.9C138.2 235.3 139.9 236.7 141.7 238.1C141.6 238.4 141.7 238.7 142 238.9C156.2 250.7 170.5 263.1 188.1 269.6C197.4 273 207.6 273.3 217.4 273.5C222.3 273.6 227.1 273.6 231.9 272.5C235.7 271.6 239.3 270.1 242.9 268.5C243.2 268.9 243.7 269.2 244.2 268.9C259.3 261.5 271.9 248.7 282.9 236.1C288 230.3 292.8 223.7 295.6 216.5C298.9 208 304.3 200.5 307.2 191.8C308.9 186.7 309.8 181.7 312 176.8C313.7 173.1 315.1 169.3 316.4 165.5C319.1 157.5 320.4 149.4 321.9 141.2C323.4 131.8 329.1 116 320.1 108.9Z" fill="#4BC7C8"/>
<path d="M322.8 141C321.9 145.5 320.8 150.2 318.8 154.3C318.6 154.7 318.1 154.9 317.7 154.8C300 148.6 282.8 141.1 264.8 135.8C255.7 133.1 246.5 130.6 237.2 128.3C229.5 126.4 223.1 123.3 216.2 119.5C216.1 119.5 216.1 119.4 216 119.3C215.4 119.2 214.9 118.5 215.3 117.9C218.6 112.6 221 106.1 221.4 99.9C221.4 99.4 221.7 99.1 222.1 98.9C222.2 98.9 222.3 98.9 222.4 98.8C222.3 98.1 223.1 97.3 223.9 97.7C233.8 102.2 244.1 105.2 254.5 108.2C264.1 111 273.6 114 283.2 116.9C292.6 119.7 302.1 123 311.7 125.2C314.7 125.9 321.3 126.5 323 129.5C323.3 130 323.1 130.4 322.8 130.7C324.8 133.2 323.3 138.4 322.8 141ZM304.6 183.9C300.4 181.9 296.2 179.9 292 177.9C283.2 173.8 274.2 170 265.2 166.3C245.9 158.4 226.6 150.6 207.3 142.9C206.2 142.4 205.7 144.2 206.6 144.7C206.4 144.8 206.3 144.9 206.2 145.1C203 150.3 200.8 156 197.8 161.4C197 161.4 196.4 162.4 197.1 163.1C199.8 165.5 203.4 167.1 206.5 169.1C210.9 172 215.2 175.1 219.7 177.8C228.3 182.9 237.6 186.7 246.7 190.6C256.6 194.8 266.4 199.4 276.1 204.3C279.4 206 282.4 208.3 285.6 210.2C287.9 211.6 292.3 212.4 293.9 214.4C294.3 214.9 295.1 214.7 295.5 214.2C298.9 209.6 302.1 205 303.8 199.5C304.9 195.9 307.7 191.9 307.6 188C307.9 187.8 308.2 187.4 308 186.9C307.5 185.2 306 184.6 304.6 183.9ZM281.9 235.7C274.6 232.1 267.8 227.3 261 223C252.6 217.6 244.2 212.4 235.4 207.6C227.2 203.2 218.6 199.6 210.5 195.1C206.6 192.9 203.2 190.2 199.5 187.7C195.8 185.3 191.6 183.7 187.9 181.2C187.1 180.7 186.4 181.5 186.5 182.2C186.4 182.2 186.3 182.3 186.2 182.4C180.7 186.8 178.9 195.6 171.6 197.8C171.4 197.8 171.2 197.9 171 198.1C170.5 198.5 170.5 199.1 170.9 199.6C170.9 199.7 171 199.7 171.1 199.8C181.6 207.5 192 215.3 203.3 221.8C214.2 228.1 226.2 232.4 237 238.9C242.6 242.3 247.3 246.6 252.4 250.7C255.2 252.9 259 256.3 262.8 256.1C266.2 256 269.2 251.8 271.3 249.7C274.9 246 276.5 240.9 281.3 238.4C281.6 238.2 281.8 237.9 281.8 237.6C282.5 237 282.7 236.1 281.9 235.7ZM238.6 260.7C234.4 257.6 230 254.8 225.5 252.1C217 247.1 208.1 242.8 199.8 237.6C195.9 235.2 192.2 232.3 188.3 230C183.9 227.4 179.3 225.1 174.9 222.5C170.8 220.1 167.9 217.4 164.8 213.9C163 211.8 161.1 209.7 158.4 208.9C157.7 208.7 157.2 209.3 157.2 209.9C155.5 210.3 153.6 211.6 152.5 212.1C149.9 213.5 145.5 216.6 142 216.9C141.9 216.8 141.7 216.8 141.6 216.8H140.4C140 216.8 139.8 217 139.6 217.3C138.9 217.5 138.7 218.9 139.6 219.3C144.4 221.3 147.7 225.7 151.9 228.7C157.5 232.9 163.4 236.7 169.1 240.7C179.2 247.7 190.5 252.9 200.6 260C208.1 265.3 214.8 274.7 224.8 274.6C231 274.6 240.2 272.4 245.3 268.7C245.6 268.5 245.7 268.2 245.7 268C246.2 267.7 246.4 267 246 266.4C243.9 264 241 262.5 238.6 260.7Z" fill="white"/>
<path d="M327.3 99.2999C323.3 99.0999 319.7 107.9 318.4 110.4C310.4 125.5 302.5 140.4 296.9 156.5C296.9 156.5 296.9 156.5 296.9 156.6C295.2 161.4 293.4 166.1 291.5 170.7C291.1 171.6 290.7 172.5 290.4 173.3C290.3 173.5 290.3 173.6 290.2 173.7C288.8 176.9 287.4 180.1 285.9 183.2C284.8 185.3 283.8 187.4 282.7 189.6C278.1 198.2 273.1 206.5 267.8 214.8C256.5 232.6 244.7 250 233 267.5C232.9 267.6 232.7 267.6 232.6 267.8C231.5 269.2 230.5 270.6 229.5 272.1C226.8 271 223.9 270.6 220.9 270.2C216.4 269.6 212.9 268.4 208.6 267.1C205.6 266.2 204.2 267.9 204.3 269.9C202.7 272.1 205.1 274.1 207.6 275.3C210.1 276.5 212.9 276.8 215.6 277.3C218.9 277.9 222.2 278.6 225.4 279.6C225.2 280 225 280.4 224.8 280.8C222.2 285.7 219 290.1 215.7 294.5C213.8 297 212.1 299.6 210.5 302.3C210.7 301.9 210.7 301.3 210.1 301.1C207.6 300 205.2 298.9 202.9 297.6C203 297.3 202.9 297 202.6 296.7C200.9 295.4 199.1 294.4 197.1 293.5C196.7 293.3 196.2 293.4 196 293.7C186.2 287.9 176.8 281.1 167 275.3C160.5 271.4 153.5 268.2 146.4 265.3C142.8 263.8 139.3 262.5 136 260.3C133.8 258.9 131.6 257.5 129.1 256.7C132.6 251 134.9 244.2 139.7 239.5C139.8 239.4 139.9 239.3 139.9 239.1C140.4 238.8 140.7 238.1 140.2 237.5C139.2 236.5 138 235.5 136.7 234.8C136.5 234.2 135.7 233.7 135 234.3C130.8 238 128.7 243.3 125.3 247.8C121 253.6 117.3 259.8 113.3 265.8C110.5 269.9 107.5 273.9 105 278.2C103.9 280.1 102.4 282.7 102.2 285.2C102 285.3 101.8 285.5 101.8 285.8C101.4 288 102 290.7 104.9 289.8C109.8 288.3 112.1 283.1 114.6 278.9C118 273.1 121.8 267.6 125.5 262.1C129.3 265.2 134.3 266.9 138.7 268.9C139.6 269.3 140.5 269.7 141.4 270.1C151 275.1 160.5 280.3 169.9 285.5C176.7 289.2 183.5 293.2 190.5 296.6C191.7 297.2 192.9 297.7 194.1 298.2C198.3 301.4 202.8 304.3 207.4 306.9H207.5C203.9 313.1 200.6 319.5 197.2 325.8C196.9 325.9 196.6 326.1 196.5 326.5C195.6 329.7 197.6 330.6 200.2 329.8C201.3 329.9 202.3 329.5 202.9 328.5C206.8 325.8 208.9 320.3 210.9 316.3C215 308 220.2 300.2 225.3 292.4C227.6 288.9 229.9 285.3 232.2 281.8C236.8 282.8 241.5 283.3 246 284.8C251.1 286.5 256.1 288.4 261.4 289.6C271.9 291.8 282 295.7 291.9 300C294.9 301.3 305.8 306.3 308.4 301.4C310 298.3 308 296.7 305.4 295.9C303.1 292.6 300.5 289.6 298.2 286.3C294.7 281.3 291.6 276.4 287.6 271.8C278.6 261.3 269.4 250.9 260.2 240.6C260 240.3 259.7 240.3 259.4 240.3C260.6 238.6 261.8 237 263 235.3C267.9 228.2 272 220.8 277.3 214.1C282.1 208.1 286.1 201.4 289.1 194.3C289.2 194 289.2 193.6 289.1 193.4C289.7 192.4 290.2 191.5 290.6 190.4C294.1 184.1 296.8 177.4 299.5 170.7C303.9 160 308.9 149.6 311.9 138.3C314.1 133.1 316.5 128 319.5 123.4C323.4 117.6 328.1 112.4 330.3 105.7C331.4 102.9 330.9 99.4999 327.3 99.2999ZM279.6 273C283 276.8 285.7 281 288.8 285C291.1 287.9 293.7 290.6 296 293.5C294.1 292.6 291.4 291.2 289.2 291C284.5 289 279.7 287.1 274.5 286.9C274.4 286.9 274.2 286.9 274.1 287C271.2 285.8 268.4 284.5 265.5 283.5C263.3 282.8 261 282.2 258.5 281.7C251.8 278.3 244.5 276.7 237.3 274.8C237.2 274.8 237.2 274.7 237.1 274.7C237.2 274.5 237.3 274.2 237.4 274C238.5 272.3 239.5 270.5 240.1 268.6C240.1 268.5 240.1 268.5 240.1 268.4C244.1 260.8 249.3 253.8 254.4 246.9C254.6 247.1 254.8 247.3 255.1 247.5C255.2 247.6 255.3 247.6 255.4 247.6C263.5 256.3 271.9 264.4 279.6 273ZM150.2 210.9C151.1 210.1 152 209.3 152.8 208.4C153.9 205.5 155.8 203.3 157.3 200.6C159.3 197 161.1 193.4 163.5 190.1C163.9 189.6 164.4 189.6 164.9 189.8C168.1 184 171.3 178.2 174.7 172.5C178.9 165.2 183.1 157.9 186.5 150.2C190.2 141.7 193.2 133 196.7 124.4C203.4 108.2 210.6 92.1999 219.1 76.8999C220.5 74.3999 222.1 71.1999 225.1 70.8999C225.2 70.5999 225.5 70.3999 226 70.3999C226.4 70.3999 226.8 70.5999 227.2 70.5999C227.7 70.5999 228 70.8999 228.2 71.2999C228.5 72.2999 228.5 73.1999 228.4 74.0999C228.4 75.2999 228 76.5999 227.7 77.4999C226.7 81.6999 223.8 84.3999 221.2 87.4999C221.3 87.6999 221.2 87.9999 221.1 88.1999C217.1 94.7999 213.6 101.7 210.5 108.8C205.3 123.7 200.4 138.9 193.7 153.1C189.7 161.5 184.7 169.1 180.2 177.2C176.9 183 173.6 188.7 169.3 193.8C169.3 193.9 169.2 194.1 169.2 194.2C168.2 196 167.4 198.2 166.2 200C165.9 201 165.4 201.4 164.6 201.9C164.5 202 164.4 202.1 164.3 202.2C164.1 202.4 163.9 202.5 163.7 202.7C163.6 202.9 163.5 203.1 163.4 203.3C161.3 207 156.8 208.5 153.7 211.2C153.4 211.4 153.1 211.5 152.8 211.4C152.5 211.7 152.2 211.9 151.9 212.2C150.7 213.1 149.3 211.7 150.2 210.9Z" fill="#E08F13"/>
<path d="M329.4 98.4C323.6 95.4 320.2 103.6 320 104.2C319.8 104.6 319.6 105 319.5 105.3C319.4 105.4 319.4 105.6 319.4 105.7C319.3 105.9 319.2 106.1 319.1 106.3C303.3 105.3 288.2 101 272.9 97.1C265.1 95.1 257.3 92.8 249.7 90.3C242.6 87.9 233.7 85.5 227.7 80.5C228 80 228.2 79.6 228.4 79.1C229.3 77.5 230 75.8 230.4 74.1C230.7 72.3 230.1 69.8 228.2 68.9C222.4 65.9 219 74.1 218.8 74.7C218.6 75.1 218.4 75.5 218.3 75.8C218.2 75.9 218.2 76.1 218.2 76.2C217.7 77.2 217.2 78.1 216.8 78.9C215.1 82.3 213.2 85.6 211.4 88.9C208.1 94.7 204.9 100.4 202.5 106.6C193.5 129.8 184.7 152.4 172.2 173.9C164.3 187.5 155.7 200.7 146.9 213.7C139.1 217.2 130.6 219.3 121.5 219.7C121.3 219.5 121.1 219.4 120.9 219.2C120.5 218.8 119.9 218.9 119.6 219.2C119.6 219.1 119.5 219 119.4 218.9C119.4 219.1 119.4 219.2 119.4 219.4C119.1 219.8 119 220.3 119.5 220.7C119.5 221.1 119.6 221.5 119.6 221.9C120 221.9 120.4 221.9 120.8 221.9C125.1 225.7 129.3 229.6 133.7 233.5C133.7 233.5 133.7 233.6 133.6 233.6C127.1 243.3 120.4 252.9 114.3 262.9C111.5 267.4 108.9 272 106.2 276.5H106.1C104.8 278.6 103.4 280.6 102 282.6C101.9 282.8 101.8 283 101.8 283.1C101.3 283.8 100.9 284.6 100.6 285.5C100.5 285.6 100.5 285.7 100.4 285.8C100.4 285.8 100.5 285.8 100.5 285.9C100.2 286.9 100.2 288 100.6 289C101.3 291.1 103.8 292.1 105.9 292C106.5 292 107 291.8 107.5 291.6C107.6 291.7 108.4 291.3 108.6 291C110.5 289.6 111.7 287.1 112.8 284.9C112.8 284.9 112.8 284.8 112.9 284.8C113.2 284.3 113.4 283.7 113.7 283.3L113.6 283.2C117.2 277.4 120.6 271.4 124.2 265.5C124.6 264.8 125.1 264.1 125.5 263.4C125.6 263.4 125.7 263.5 125.7 263.5C125.6 263.9 125.7 264.3 126.2 264.5C126.2 264.5 126.3 264.5 126.3 264.6C127 264.9 127.7 265.2 128.4 265.5C128.7 265.7 129 265.6 129.3 265.5C138.4 270.7 148 275.2 157.4 280C168.2 285.5 178.6 291.6 189.1 297.6C194.6 300.7 200 303.8 205.5 306.9C205.5 307.1 205.6 307.4 205.9 307.6C206 307.7 206.2 307.8 206.3 307.8C203.2 313 200 318.1 196.6 323.1C196.5 323.3 196.4 323.5 196.4 323.6C195.3 325.3 194.5 327.4 195.2 329.5C195.9 331.6 198.4 332.6 200.5 332.5C204.1 332.3 205.9 328.5 207.4 325.4C207.4 325.4 207.4 325.3 207.5 325.3C207.9 324.6 208.2 323.9 208.6 323.3C208.8 323 208.8 322.7 208.6 322.4C214.6 313.5 219.9 304.2 225.4 295C227.9 290.9 230.4 286.9 233.1 282.9C237.3 284 241.5 285 245.7 286.1C257.6 289.2 269.3 293.2 281 296.9C287.1 298.9 293.2 300.8 299.3 302.7C299.4 303 299.5 303.2 299.9 303.3C303.1 304.3 309.5 306.8 310.7 301.8C310.8 301.5 310.8 301.2 310.9 300.9C311.5 298 308.3 295 306.1 293C298.8 283.9 291.6 274.8 283.9 266C279.6 261.1 275.2 256.4 270.9 251.5C278.4 244.1 285 235.5 290.5 226.2C309.9 193.3 324 154.1 325.8 115.5C326.9 113.6 328.6 111.1 329.8 108.7C330.7 107.1 331.4 105.4 331.8 103.7C332 101.9 331.3 99.4 329.4 98.4ZM175.8 171.6C187.7 151 195.9 129.2 204.5 107.1C207.3 99.9 211.2 93.4 215 86.7C216.7 83.6 220.2 78.9 221.1 74.8C222.3 72.7 223.9 70.9 226.6 70.6C229.9 70.2 228.5 74.5 226.8 77.9C226.8 77.9 226.3 78.5 226.1 78.9C225.6 79.9 225 81 224.5 82C224.3 82.5 224.1 83 223.9 83.5C223.9 83.5 223.9 83.6 223.8 83.6C223.6 84 223.5 84.3 223.3 84.7C223.2 84.9 223 85 222.8 85C222.1 86.3 221.4 87.5 220.7 88.8C217.4 94.6 214.2 100.3 211.8 106.5C202.8 129.7 194 152.3 181.5 173.8C175.3 184.4 168.7 194.8 161.9 205.1C158.3 207.7 154.5 210 150.6 212C159.2 198.8 167.8 185.4 175.8 171.6ZM222.6 89.3C217.1 117.3 205.9 144.3 192.4 169C185.7 181.3 176.9 192.6 166.5 201.4C172.9 191.6 179.1 181.8 184.9 171.7C196.8 151.1 205 129.3 213.6 107.2C216 100.8 219.3 95.1 222.6 89.3ZM123.6 221.6C131.2 221 138.3 219.3 144.9 216.7C144.8 216.8 144.8 216.9 144.7 217C145 216.9 145.3 216.8 145.5 216.7C145.7 216.6 145.8 216.6 146 216.5C146.7 216.2 147.3 215.9 148 215.6C148.1 215.5 148.1 215.4 148.2 215.3C150.8 214.1 153.4 212.8 155.9 211.3C156.8 210.4 158 209.7 159.1 209.1C159.5 208.9 160 208.7 160.4 208.5C161.1 208 161.9 207.6 162.7 207.2C162.9 207 163 206.7 163.2 206.5C175 197.7 184.9 185.8 192.7 172.6C208.3 146 220.5 115.3 225.6 84.2C226 83.6 226.4 83 226.7 82.4C231.7 86.3 238.4 88.4 244.2 90.6C252.3 93.7 260.7 96.1 269.1 98.4C285.2 102.7 301.4 107.3 318 108.5L317.9 108.6C316.2 112 314.3 115.3 312.5 118.6C309.2 124.4 306 130.1 303.6 136.3C294.6 159.5 285.8 182.1 273.3 203.6C266.8 214.7 259.9 225.5 252.8 236.2C251.3 236.9 250.1 238.4 249.7 240C249.6 240.3 249.6 240.7 249.6 241C244.6 248.4 239.6 255.8 234.6 263.2C232.7 266 230.7 268.9 228.8 271.7C222.6 270.1 216.4 268.4 210.3 266.4C210.1 266.3 209.9 266.3 209.7 266.4C207.7 265.8 205.5 265.7 203.7 266.9C202 268.1 201.6 270.5 202.2 272.4C178.8 268.9 159.6 254.3 141.7 238.4C141.2 237.9 140.8 237.4 140.4 236.8C140.3 236.9 140.3 237 140.2 237.1C138.8 235.9 137.5 234.7 136.1 233.4H136C136 233.4 135.9 233.4 135.9 233.3C135.6 233.1 135.4 232.8 135.2 232.6C135 232.4 134.9 232.2 134.7 231.9C134.7 231.9 134.7 231.8 134.6 231.8C134.6 231.9 134.5 231.9 134.5 232C131 228.3 127.3 224.9 123.6 221.6ZM211.3 277.3H211.4C212.2 277.4 213 277.6 213.7 277.8C214.1 277.9 214.4 277.8 214.6 277.6C217.5 278.5 220.4 279.4 223.3 280.2C220.6 284.2 218 288.3 215.5 292.4C214 294.9 212.5 297.4 211 299.9C210.9 299.9 210.9 299.8 210.8 299.8C210.6 299.7 210.4 299.5 210.2 299.4C210 299.3 209.9 299.2 209.7 299.2C202.8 295.3 196 291.4 189.1 287.5C179.1 281.8 169.2 276 159 270.7C149.4 265.7 139.6 261.2 130.2 255.9C133.7 250.5 137.2 245.3 140.8 240C159.3 256.4 179.3 271.5 203.7 274.6C205.5 276.3 208.6 276.8 211.3 277.3ZM123.3 262.8C119.5 269 115.8 275.4 112 281.6C111.9 281.5 110.8 283.1 110.9 283.4C109.7 285.4 108.4 287.4 107.1 289.3C105.8 290.1 104.2 290 103 289C102.1 288.3 102 287.3 102.3 286.3C102.5 285.9 102.7 285.6 103 285.2C103.4 285.1 103.7 284.8 103.7 284.3V284C107.5 277.8 111.1 271.6 114.9 265.3C116.7 262.4 118.5 259.4 120.4 256.6C121 255.5 121.7 254.4 122.5 253.4C126.6 247.1 130.9 241 135.1 234.7C136.5 235.9 137.9 237.2 139.3 238.4C135.8 243.5 132.4 248.7 129 253.8C128.8 254.2 128.6 254.6 128.4 255C128.2 255.3 128 255.6 127.9 255.9C127.2 257 126.5 258 125.7 259.1C124.8 260.4 124.1 261.6 123.3 262.8ZM189.8 295.9C179.8 290.2 169.9 284.4 159.7 279.1C149.2 273.7 138.5 268.7 128.3 262.8C127.7 262.4 127.1 262 126.5 261.7C127.4 260.3 128.3 258.8 129.2 257.4C138.1 262.5 147.4 266.9 156.6 271.5C167.4 277 177.8 283.1 188.3 289.1C195.4 293.1 202.5 297.2 209.6 301.2C209.7 301.3 209.9 301.4 210 301.5C209.1 303 208.2 304.5 207.4 305.9C201.5 302.5 195.7 299.2 189.8 295.9ZM224.5 292.3C222 296.4 219.6 300.5 217.1 304.7C217 305 216.8 305.4 216.7 305.7C216.6 306 216.4 306.2 216.3 306.5C216.2 306.7 216.1 306.8 216 307C215.8 307.3 215.7 307.5 215.5 307.8C215.4 307.9 215.3 308.1 215.2 308.2C215 308.5 214.8 308.7 214.6 309C214.5 309.1 214.4 309.3 214.3 309.4C214 309.8 213.7 310.1 213.4 310.5C213.5 310.5 213.5 310.5 213.6 310.5C211 314.8 208.4 319 205.5 323.1C205.3 323.4 205.3 323.7 205.4 324C205.4 324.1 205.3 324.2 205.3 324.3V324.7C204.4 326.4 203.6 328.1 202.2 329.5C200.9 330.8 198.9 330.9 197.5 329.7C196.3 328.7 196.6 327.2 197.2 325.9C197.7 325.9 198.2 325.6 198.2 324.9V324.2C198.2 324.2 198.2 324.2 198.2 324.1C198.2 324 198.3 324 198.3 323.9C198.4 323.7 198.5 323.5 198.5 323.3C201.8 318.5 204.8 313.6 207.8 308.6C207.8 308.6 207.8 308.6 207.9 308.6C208.2 308.2 208.4 307.8 208.7 307.5C208.8 307.4 208.8 307.3 208.9 307.2C208.8 307.2 208.8 307.1 208.7 307.1C209 306.6 209.3 306.1 209.6 305.5C209.6 305.4 209.6 305.3 209.7 305.2C210.1 304.5 210.6 303.8 211 303.1C211.2 302.8 211.3 302.6 211.5 302.3C211.8 301.9 212.2 301.4 212.5 300.8L212.4 300.7C212.8 300.1 213.2 299.4 213.5 298.8C213.5 298.8 213.5 298.7 213.6 298.7C214.4 297.4 215.2 296 216 294.7C218.9 289.9 221.9 285.2 225 280.5C226.9 281 228.8 281.5 230.7 282C228.8 285.6 226.6 288.9 224.5 292.3ZM281.4 294.9C270.3 291.3 259.1 287.6 247.9 284.5C243.5 283.3 239 282.2 234.6 281C234.5 281 234.5 281 234.4 281H234.3C233.8 280.9 233.3 280.7 232.8 280.6C232.6 280.6 232.5 280.5 232.3 280.4C230.4 279.9 228.5 279.4 226.6 278.9C226.6 278.9 226.6 278.9 226.6 278.8C226 278.6 225.4 278.5 224.9 278.3C224.8 278.3 224.7 278.2 224.7 278.1L224.6 278.2C221.4 277.3 218.2 276.4 215 275.3C214.9 275.3 214.9 275.4 214.8 275.4C213.4 275.3 211.9 275.2 210.5 274.8C210.4 274.8 210.2 274.7 210.1 274.7C210.1 274.7 210.1 274.7 210.2 274.7C209.7 274.6 209.3 274.4 208.8 274.2C207.4 273.9 206 273.5 205.4 272.3C205.3 272.3 205.2 272.3 205 272.3C204.4 271.4 204.2 270.1 204.7 269C205.3 267.6 206.8 267.4 208.2 267.6C208.3 268.1 208.8 268.5 209.4 268.3L210 268.1C210 268.1 210 268.1 210.1 268.1C210.2 268.1 210.2 268.1 210.3 268.2C210.5 268.3 210.7 268.3 210.9 268.2C215.9 269.8 221 271.3 226.1 272.6C226.1 272.6 226.1 272.6 226 272.6C226.6 272.8 227.2 273.1 227.8 273.4C227.9 273.4 227.9 273.4 228 273.4C228.7 273.6 229.4 273.8 230 274C230.2 274 230.4 273.9 230.5 273.8C232.1 274.2 233.8 274.6 235.4 275.1C235.5 275.1 235.6 275.1 235.7 275.2C235.7 275.2 235.8 275.2 235.8 275.3C236 275.4 236.3 275.5 236.5 275.6C236.8 275.7 237.2 275.8 237.5 275.9L237.6 275.8C239.4 276.3 241.2 276.7 243 277.2C254.9 280.3 266.6 284.3 278.3 288C283.2 289.6 288 291.1 292.9 292.7C293 292.7 293 292.7 293.1 292.7C293.3 292.8 293.6 292.9 293.8 293C295 293.5 296.2 293.9 297.4 294.4C297.3 294.3 297.2 294.2 297.1 294.1C298.8 294.6 300.5 295.2 302.1 295.7C304.7 296.7 308.9 297.5 308.7 300.8C308.7 300.9 308.7 301 308.7 301.1C308.1 302.8 305.2 302.8 303.1 301.8C302.7 301.8 302.2 301.4 301.9 301.3C301.2 301 300.3 300.8 299.5 300.6C299.5 300.7 299.6 300.7 299.6 300.8C293.5 298.8 287.4 296.8 281.4 294.9ZM255.5 249.4C255.8 249.7 256.1 250 256.3 250.3C256.6 250.6 256.9 250.6 257.2 250.6C258.9 252.7 260.5 254.7 262.3 256.7C256.4 261.4 249.9 265.4 242.9 268.3C243.8 266.9 244.8 265.5 245.7 264.1C248.9 259.2 252.2 254.3 255.5 249.4ZM263.5 258.1C268.4 263.7 273.4 269.2 278.4 274.7C282.9 279.7 287.2 284.9 291.5 290.2C287.3 288.9 283.1 287.5 278.9 286.2C267.8 282.6 256.6 278.9 245.3 275.8C243.2 275.2 241 274.7 238.8 274.1C239.5 273.1 240.1 272.1 240.8 271.1C249.1 268.1 256.6 263.6 263.5 258.1ZM281.1 266C288.9 274.7 296.1 283.9 303.4 293C303.4 293.2 303.5 293.5 303.7 293.7C304 293.9 304.2 294.2 304.5 294.4L304.6 294.5C304.5 294.5 304.5 294.5 304.4 294.4V294.3C303.9 294.1 303.5 294 303 293.8C302.8 293.7 302.5 293.6 302.3 293.5C302.1 293.4 302 293.4 301.8 293.4C299.5 292.7 297.2 291.9 294.9 291.2C290.4 285.6 285.8 280 281.1 274.6C275.8 268.6 270.3 262.7 265.1 256.7L265.2 256.6C264.7 256.2 264.2 255.7 263.8 255.2C261.6 252.6 259.4 250 257.3 247.4C257.2 247.2 257 247.1 256.9 247.1C258 245.4 259.1 243.8 260.2 242.1C262.7 245.2 265.4 248.3 268 251.3C268 251.3 268 251.3 267.9 251.4C268 251.5 268 251.6 268.1 251.6C268.5 252 268.9 252.4 269.2 252.8C273.2 257.3 277.2 261.6 281.1 266ZM290 222.8C284.5 232.9 277.6 242.3 269.5 250.2C266.7 247.1 264 243.9 261.4 240.6C270 227.7 278.3 214.6 286.1 201.2C298 180.6 306.2 158.8 314.8 136.7C317.1 130.7 320.3 125.1 323.5 119.6C320.8 155.8 307.3 191.2 290 222.8ZM327.8 107.5C327.8 107.5 327.3 108.1 327.1 108.5C326.8 109.2 326.4 109.8 326.1 110.5C325.5 112.1 324.6 113.6 323.6 115C323 116.1 322.3 117.3 321.7 118.4C318.4 124.2 315.2 129.9 312.8 136.1C303.8 159.3 295 181.9 282.5 203.4C275.4 215.5 267.9 227.3 260.1 239C260.1 239 260.1 239 260 238.9C260 239 259.9 239 259.9 239.1C259.5 239.7 259.2 240.2 258.8 240.8C258.8 240.8 258.8 240.8 258.9 240.8C257.7 242.6 256.4 244.5 255.2 246.3L255.1 246.2C254.8 246.8 254.4 247.4 254 248C253.9 248.1 253.9 248.2 253.8 248.3C253.8 248.4 253.7 248.4 253.7 248.5C253.7 248.6 253.6 248.6 253.6 248.7C250.4 253.5 247.1 258.3 243.9 263C242.6 265 241.2 267 239.8 269C239 270.4 238.1 271.7 237.2 272.9C237.1 273.1 236.9 273.3 236.8 273.6C235 273.1 233.2 272.7 231.4 272.2C231.4 272 231.3 271.8 231.2 271.9C233 269.3 234.7 266.7 236.5 264.1C241.1 257.2 245.7 250.4 250.3 243.5C250.3 243.5 250.3 243.6 250.4 243.6C250.8 242.8 251.3 242.1 251.8 241.4V241.3C252.6 240.1 253.4 238.9 254.1 237.7H254.2C254.6 237.1 255.1 236.5 255.6 235.9C255.5 235.9 255.4 235.9 255.4 235.9C262.9 224.5 270.2 213.1 277 201.3C288.9 180.7 297.1 158.9 305.7 136.8C308.5 129.6 312.4 123.1 316.2 116.4C317.4 114.3 319.4 111.5 320.8 108.6C321.1 107.6 321.5 106.5 322 105.6C322.1 105.2 322.2 104.9 322.3 104.6C323.5 102.5 325.1 100.7 327.8 100.4C331 99.8 329.5 104.1 327.8 107.5Z" fill="#333333"/>
<path d="M300.2 119.5C299.9 119.7 299.7 119.9 299.4 120.1C295.6 120.8 292.1 122.5 288.8 124.4C288.7 124.4 288.7 124.4 288.6 124.4C288.4 124.4 288.2 124.5 288.1 124.7C282.3 117.3 273.9 112.1 264.6 109.5C252.7 106.1 239.7 107 229.1 112.8C229.2 112.6 229.2 112.4 229.2 112.2C228.1 107.7 223.2 104.4 219.9 101.5C219.2 100.9 218.2 101.3 218.2 102.2C218 108.1 218 114.1 219 120C219 120.2 219.1 120.3 219.2 120.4C210.5 129.3 200.4 144.1 206.5 156.6C206.2 156.7 206 156.9 205.8 157.2C205 159.2 197.9 159.7 196.1 160C193.3 160.6 189.9 161 187.6 163C187.5 163.1 187.5 163.1 187.4 163.2C181.1 155.4 170.1 152.4 160 151.8C152.5 151.3 135.4 153.2 138 164.3C138.1 164.9 138.6 165 139 165C142.1 167.7 151 166.2 153.8 166.1C160.7 165.7 164.9 168.6 166.8 173.3C162.3 176.2 158.6 180.1 155.6 184.6C152.4 189.5 148.8 195.2 148.6 201.2C146.9 207.3 146.1 213.7 146.1 219.9C141.9 218 135.9 212.2 131.6 215.2C131.1 214.9 130.4 215 130.1 215.8C129.8 216.6 129.6 217.4 129.3 218.2C129.2 218.6 129.1 218.9 129 219.3C128.3 221.8 128.1 224.1 129.7 226.5C129.9 226.9 130 227.4 130.2 227.8C131.4 230.2 136.2 232.7 140.9 233.7C141.2 233.8 141.5 233.9 141.8 234C142 234.1 142.3 234 142.4 234C144 234.2 145.5 234.3 146.9 234.1C147.9 238.6 152.3 241.3 156.8 241.8C155.2 242.9 153.5 244.1 151.9 245.2C147.9 247.8 143.1 248.4 138.6 249.2C130 250.7 121.1 250.8 113.4 255.1C112.8 255.5 112.8 256.2 113.2 256.6C111.6 257.6 110.1 258.8 108.7 260.3C105.7 263.5 104.6 267.2 104.3 271.3C103.8 272.9 103.5 274.5 103.7 276.3C104 280.5 106.1 284.8 108.6 288.1C108.8 288.4 109.1 288.5 109.3 288.5C109.8 289.1 110.4 289.7 111.1 290.2C115.9 293.6 121 289 122.2 284.3C122.8 284.2 123.5 283.6 123.1 282.8C120.4 277.6 115.5 268.2 122.5 264.1C124.5 262.9 127.1 262.6 129.3 262C133 261 136.6 260 140.3 259.2C146.1 257.9 152.6 258.1 158 255.4C158.7 255.1 159.4 254.7 160.1 254.3C164.1 252.5 168.1 250.7 169.3 246.4C172.4 250.9 176.2 254.5 181.4 256.7C185.4 258.4 189.6 258.9 193.8 259.5C193.9 259.7 194 259.9 194.3 260C198.2 261.7 202.4 263 206.7 262.8C209.6 264.7 213.6 263.6 216.7 262.8C223.7 261 230.9 258.9 237.5 256.1C246 252.5 252.8 246.1 259.6 239.8C259.8 239.8 260 239.8 260.2 239.7C270.5 233.2 276.6 223.7 280 213.1C282.4 208.7 284 204.1 284.6 198.7C284.7 197.7 284.9 196.5 285.1 195.4C285.2 195.3 285.3 195.1 285.3 194.9C285.3 194.6 285.3 194.4 285.3 194.1C286.1 188.8 286.8 182.6 283.7 178.5C285.9 178.1 287.8 176.7 289.6 174.8C295.2 171.6 298.3 163.4 297.4 157.1C298.2 150.4 297.3 143 294.8 136.9C294.9 136.9 295 136.8 295 136.8C299.2 133.4 301.9 126.6 301.8 121.3C301.8 121.2 301.9 121.1 301.9 121.1C302.3 119.6 301.1 118.8 300.2 119.5ZM211.8 261.5C214 261 216.2 260.4 218.3 260.1C216.1 260.9 213.8 261.4 211.8 261.5Z" fill="#CDCED0"/>
<path d="M217.7 178C213 178.7 208.5 182.5 204.3 184.5C199.3 187 194.3 189.2 190 192.7C186.3 194.4 182.8 196.4 181.5 200.5C181.3 200.7 181.1 201 180.9 201.2C179.4 203.1 178.9 205.6 178.5 208C178.4 208.6 178.2 209.1 178.2 209.7V209.8C178.2 209.9 178.2 210 178.2 210.1C178.1 210.7 178.6 211 179.1 211.1C179.1 216 185.5 216.9 189.4 218.4C189.9 218.6 190.2 218.4 190.4 218.1C194.6 218.8 199.2 217.9 203.6 216.2C204.4 215.9 204.4 214.9 204 214.5C206.2 213.6 208.4 212.7 210.2 211.1C212.8 208.9 215.3 206.4 217.7 203.9C221.9 199.5 227.4 193.7 228.1 187.4C228.6 181.1 223.7 177.2 217.7 178Z" fill="white"/>
<path d="M269.823 159.484C269.096 162.774 271.131 166.02 274.367 166.734C277.602 167.449 280.814 165.361 281.541 162.071C282.267 158.781 280.233 155.535 276.997 154.821C273.761 154.106 270.549 156.194 269.823 159.484Z" fill="#EB969C"/>
<path d="M221.378 148.764C220.651 152.054 222.685 155.3 225.921 156.015C229.157 156.73 232.369 154.642 233.096 151.352C233.823 148.063 231.788 144.816 228.553 144.102C225.317 143.387 222.105 145.474 221.378 148.764Z" fill="#EB969C"/>
<path d="M285.2 165.5C286.1 166.4 284.8 167.9 283.8 167C281.4 164.7 278.1 164.6 275 163.9C273.7 163.6 274.2 161.7 275.4 161.9C279 162.6 282.5 162.9 285.2 165.5ZM285.1 159.2C282 158.6 278.8 158.6 275.7 158.6C274.4 158.6 274.5 160.6 275.8 160.6C277.9 160.6 280 160.6 282.1 160.8C283.6 160.9 288.1 161 288.8 162.7C289.3 163.9 291.2 163.3 290.7 162.1C289.8 160 287.1 159.6 285.1 159.2ZM212.8 153.9C211.8 154.8 213.3 156.1 214.3 155.3C217.6 152.4 222.4 151.1 226.4 153.3C227.5 153.9 228.5 152.1 227.3 151.5C222.5 148.9 216.8 150.4 212.8 153.9ZM213.3 147.8C218.2 146.4 222.8 147.1 227.2 149.7C228.3 150.4 229.2 148.6 228.1 147.9C223.2 145 218.1 144.3 212.7 145.9C211.5 146.2 212.1 148.1 213.3 147.8ZM297.7 140.5C299.6 147.2 300.2 154.3 298.6 161.1C297.8 164.7 297.2 168.6 295.1 171.4C294.9 172.3 294.6 173.1 294.3 174C293.9 174.1 293.6 174.1 293.2 174.2C293.3 174.3 293.3 174.4 293.4 174.5C293.3 174.5 293.2 174.4 293 174.4C292.3 174.9 291.7 175.4 291 175.8C289.3 177.1 287.2 177.9 285.1 178.3C293.1 204.6 276.5 229.3 256.4 245.2C246.4 253.1 234.2 259.8 221.6 262.4C216.5 263.4 210.1 264.7 204.4 264C200.6 264.8 196.1 262.7 192.1 259.8C190.6 260.2 189.1 260.3 187.6 260C187.5 260 187.4 259.9 187.3 259.9C180 258.8 173.1 254.9 169.6 248.3C159.9 263.9 136.7 256.5 122.4 264.9C113.4 270.1 125.2 279.4 123.3 286.6C121.8 292.2 114.5 294 110 291C104.7 287.4 103.1 278.9 103 273C102.9 265.6 105.5 259.7 111.3 254.9C123.8 244.7 143 252.3 155.4 243.4C151.1 243.3 146.9 240.2 145.9 236C137.6 237 128.9 231.1 127.2 222.7C127 222.4 126.7 222.1 126.5 221.8C126 221.2 126.4 220.4 126.9 220.1C126.9 219.8 126.9 219.6 126.9 219.3C127.2 209.7 140.1 214.2 144.9 218.4C146.7 204.1 146.3 189.4 158.1 179C160.4 177 162.8 175.1 165.3 173.4C163.6 159.6 135.8 175.1 136 163.1C136.2 154.1 146.8 151.2 154.2 151.2C156.5 151.2 158.6 151.5 160.7 152C170.9 151.9 181.1 154.2 188.5 161.6C193.9 159.6 199.4 157.9 204.9 156.3C204.7 155.5 204.6 154.8 204.5 154C204.3 154 204 153.9 203.8 153.9C203.9 153.2 204 152.5 204.1 151.8C203.4 148.4 204.5 144.6 205.2 141C206.6 134.2 210.1 127.9 214.6 122.6C215.4 121.7 216.2 120.8 217 120C216.8 119.9 216.7 119.7 216.7 119.4C216.2 113 215.5 106.3 217.8 100.2C218.1 99.4001 219.1 99.6001 219.5 100.1C221.6 102.6 224.3 104.6 226.8 106.7C228.1 107.9 229.8 109.1 230.7 110.7C233.1 109.6 235.5 108.8 238 108.1C238.1 108 238.3 107.9 238.6 107.9C238.9 107.9 239.1 107.8 239.4 107.8C239.9 107.7 240.4 107.6 240.9 107.5C240.9 107.6 240.9 107.6 240.8 107.7C243.7 107.4 246.6 107.2 249.4 107.5C256.9 107 264.3 107.9 270.1 110.3C272.8 111.4 275.3 112.8 277.8 114.3C278.3 114 279.3 114.2 279.4 115C279.4 115.1 279.4 115.2 279.4 115.4C282.6 117.7 285.6 120.3 288.2 123.3C289.7 122.2 291.7 121.8 293.4 121.3C296.5 120.4 299.8 119.7 302.8 118.3C303.4 118 304.4 118.2 304.3 119.1C303.8 125.6 300.4 131.5 297.3 137C297.2 137.2 297 137.4 296.8 137.4C297 138.3 297.4 139.4 297.7 140.5ZM289.3 124.6C289.8 125.2 290.3 125.8 290.7 126.5C292.8 124.9 294.9 123.5 297.5 123.1C298.2 123 298.6 123.7 298.5 124.3C298.1 127 296.9 129.4 296 131.9C295.7 132.8 294.7 132.8 294.3 132.3C294.8 133.2 295.2 134.1 295.6 135.1C298.2 130.5 301 125.7 301.8 120.5C300 121.2 298.2 121.7 296.4 122.2C294.5 122.7 291.2 123.2 289.3 124.6ZM218.5 118.2C219.3 117.5 220 116.9 220.8 116.2C220.2 116.5 219.3 116 219.4 115.1C219.7 112.4 219.6 109.7 220.3 107.1C220.5 106.5 221.2 106 221.7 106.4C223.9 107.8 225.3 110 226.5 112.3C227.2 111.9 227.9 111.5 228.6 111.2C227.5 109.2 224.7 107.4 223.1 106C221.7 104.8 220.2 103.5 218.9 102.2C217.5 107.4 218 113 218.5 118.2ZM215.9 123.7C218.2 124.1 220.5 124.4 222.8 124.5C222.8 124.4 222.8 124.4 222.9 124.3C223.4 123.4 223.7 122.8 224.3 121.9C224.6 121.5 225.2 121.5 225.6 121.6C234.3 125.4 244 125.4 253.2 127.2C254 127.4 254.1 128.2 253.8 128.8C253.9 129 254 129.2 254 129.4C254 129.4 253.9 129.5 253.9 129.6C253.8 130 253.7 130.3 253.6 130.7C255.2 131.3 256.9 131.3 258.5 131.5C258.6 131.1 258.7 130.7 258.8 130.2C258.9 130.1 259 130 259.1 130C259.1 129.3 259.6 128.6 260.4 128.8C269.5 131 278.3 135 287.8 135.2C288.2 135.2 288.8 135.4 288.8 136C289 137.1 289.1 137.7 289.1 138.8C289.1 138.9 289.1 138.9 289.1 139C291.3 139.9 293.5 140.6 295.8 141.2C295.1 138.7 294.1 136.3 292.9 134C289.8 128 285.4 122.7 280.1 118.4C278.9 120.4 276.2 122 274.4 123.5C273.9 123.9 273.1 123.5 272.9 123C272 120.4 271.5 117.7 270.6 115.1C269.3 116.7 268.2 118.4 267 120C266.6 120.5 265.7 120.4 265.4 119.9C264 117.4 262.3 115 261.3 112.4C260 114.7 258.4 118.4 256 117.9C252.7 117.2 251.6 112.4 250.6 109.7V109.6C250.5 109.6 250.4 109.6 250.3 109.6C250.3 109.7 250.3 109.9 250.2 110.1C249.3 112.3 247.3 113.9 246.2 116C245.9 116.6 245.1 116.7 244.6 116.3C242.7 114.4 242 111.4 239.8 109.8C239.5 109.8 239.2 109.9 238.8 109.9C232.4 111.6 226.4 114.6 221.3 118.6C219.4 119.9 217.6 121.7 215.9 123.7ZM167 171.9C167.2 171.8 167.4 171.7 167.6 171.5C167.4 170.9 167.7 170.2 168.5 170.2C168.8 170.2 169.1 170.3 169.4 170.3C169.9 170 170.4 169.7 170.9 169.4C171.1 169.1 171.4 168.9 171.7 168.9C172.5 168.4 173.3 168 174.1 167.6C174.1 167.1 174.4 166.6 175.1 166.6C175.4 166.6 175.6 166.7 175.9 166.7C176.4 166.4 177 166.2 177.5 165.9C177.7 165.5 178.1 165.2 178.6 165.4C179.8 164.8 181.1 164.3 182.3 163.7C182.4 163.7 182.4 163.6 182.5 163.6C183.7 163.1 184.9 162.6 186.2 162.1C181.1 157.3 174.7 155 167.9 154.1C169.9 154.7 172.7 155.6 173.2 157C173.7 158.2 171.7 158.7 171.3 157.5C171.6 158.3 168.6 156.6 167.7 156.3C165.7 155.5 163.7 154.7 161.6 154.1C161.2 154 160.8 153.9 160.5 153.8C160.1 153.8 159.7 153.8 159.2 153.8C158.8 153.8 158.5 153.6 158.4 153.3C155.9 152.9 153.3 152.8 150.7 153.2C146.2 153.8 139.4 155.7 138.1 160.7C140.6 159.2 143.2 157.8 146 156.8C147.2 156.4 147.7 158.3 146.5 158.7C143.7 159.7 141.2 161.1 138.7 162.6C138.4 162.8 138.1 162.8 137.8 162.6C137.9 163.4 138.2 164 138.6 164.4C138.7 164.3 138.9 164.2 139.2 164.2H139.3C139.4 164.1 139.5 163.9 139.7 163.8C141.8 162.7 144.1 161.9 146.2 160.8C147.4 160.2 148.4 162 147.2 162.5C146 163.1 144.9 163.6 143.7 164.1C143.7 164.4 143.6 164.8 143.2 165C142.9 165.2 142.6 165.3 142.3 165.4C142.5 165.4 142.8 165.4 143 165.4C150.8 165.7 165 162.3 167 171.9ZM146.4 248.8C146.5 249 146.7 249.3 146.8 249.5C146.8 249.3 146.6 249.1 146.4 248.8C146.5 248.8 146.5 248.8 146.4 248.8ZM121.1 282.8C116.8 283.9 112.4 284.5 108.3 286.3H108.2C109.1 287.6 110.2 288.7 111.5 289.5C116.6 292.2 122.2 288.2 121.1 282.8ZM117.5 272.6C117.3 271.8 117.3 271.1 117.2 270.4C115.6 270.3 114 270.1 112.4 269.9C110.3 270.1 108.1 270.7 106 271.1L105.9 271.2C105.6 271.4 105.3 271.4 105.1 271.3H105C105 274.3 105.3 278 106.2 281.4C108.8 278.1 115.3 277.4 119.1 277.3C118.4 275.9 117.8 274.3 117.5 272.6ZM121.9 262.8C121.8 262.7 121.7 262.5 121.7 262.2C121.7 260.5 119 259.3 117.7 258.6C116.1 257.8 114.4 257.2 112.6 256.8C112.4 256.8 112.3 256.7 112.1 256.6C109 259 106.6 262.2 105.6 266C109.8 265.9 114 265.3 118.2 265.9H118.3C119.1 264.7 120.3 263.7 121.9 262.8ZM134 259C133.4 256.2 132 253.9 130.4 251.6C130.3 251.5 130.2 251.3 130.2 251.2C130 251.1 129.8 250.9 129.6 250.8C129.5 250.7 129.4 250.7 129.3 250.6C126.5 250.9 123.6 251.3 120.9 252.1C120 252.3 119.2 252.6 118.4 253C122.1 254.1 125.6 257.2 126.2 260.9C128.7 260 131.3 259.4 134 259ZM146.4 252.6C145.7 251.5 144.9 250.4 144.3 249.2C142.1 249.5 139.8 249.8 137.4 249.9C138.3 252.7 140.2 255.1 140.2 258.1C142.8 257.8 145.4 257.5 147.9 257.2C147.9 257.1 147.9 256.9 147.9 256.8C148.4 255.4 147.2 253.7 146.4 252.6ZM160.1 253.9C159.2 253.1 159.1 252.1 158.8 250.9C158.6 250.3 158.3 249.7 158 249.2C156.7 248.1 155.1 247.2 153.9 246.4C152.2 247.3 150.4 247.9 148.5 248.4C149.9 251.1 152 253.4 152.2 256.6C155 255.9 157.7 255.1 160.1 253.9ZM297.5 152.8C297.5 151.7 297.4 150.6 297.3 149.5C297.2 149.5 297.2 149.5 297.1 149.4C296.1 148.9 295.1 148.5 294 148.2C293.7 148.4 293.4 148.5 293 148.2C292.7 148 292.5 147.8 292.2 147.6C291.5 147.4 290.9 147.1 290.3 146.8C290.1 146.7 290 146.6 289.9 146.4C288.7 146 287.4 145.7 286.1 145.7C286 145.7 285.9 145.7 285.8 145.6C281.7 151.4 274.7 153.8 268 151.4C262.2 149.3 259.1 144.6 258.4 138.9C258.2 138.9 258.1 138.8 257.9 138.7C257.9 138.5 257.9 138.4 257.9 138.2C255.8 137.7 253.6 137.2 251.4 137C251.4 137.1 251.3 137.1 251.3 137.2C251.1 137.2 250.9 137.2 250.8 137.1C247.7 142 243 145 236.9 144.5C229.9 143.9 224.4 138.8 223.1 131.8C223 131.8 222.9 131.8 222.8 131.7C221.6 131.2 220.3 130.9 219 130.8C218.9 130.9 218.7 131 218.5 131C217.8 131 217.1 131 216.4 130.9C216.1 130.9 215.7 131 215.4 131.1C214.9 131.2 214.6 131 214.5 130.7C213.4 130.5 212.3 130.4 211.2 130.5C211.1 130.5 211.1 130.5 211 130.5C210.5 131.5 209.9 132.4 209.5 133.4C207.8 136.9 205.4 143.8 205.7 149.1C206.1 149.3 206.4 149.6 206.2 150.2C206.2 150.4 206.1 150.6 206.1 150.7C206.2 150.8 206.2 151 206.2 151.2V151.3C206.8 151.2 207.5 151.7 207.2 152.4C207.1 152.7 207 153.1 206.8 153.4C206.9 153.6 207 153.7 207.2 153.9C206.9 153.8 206.6 153.8 206.3 153.8C206.4 154.3 206.5 154.8 206.6 155.3C206.7 155.3 206.8 155.2 206.9 155.2C208.1 154.8 208.7 156.8 207.4 157.1C201.4 158.8 195.2 160.6 189.2 162.8C189.1 163 189 163.2 188.9 163.3C192.4 165.2 195.2 167.9 197.3 171.4C197.5 171.7 197.5 172.1 197.3 172.4C196.7 173.2 196.1 174.1 195.5 174.9C195 175.6 193.9 175.5 193.7 174.7C193.6 174.5 193.6 174.4 193.5 174.2C193.2 173.8 193 173.4 192.9 172.9C191 169.3 186.7 165.7 182.9 165.5C182.8 165.5 182.7 165.5 182.6 165.4C182 165.7 181.3 165.9 180.7 166.2C184.4 168.1 187.3 170.9 189.5 174.5C189.7 174.8 189.7 175.2 189.5 175.5C188.9 176.3 188.3 177.2 187.7 178C187.2 178.7 186.1 178.6 185.9 177.8C185.8 177.6 185.8 177.5 185.7 177.3C185.4 176.9 185.2 176.5 185.1 176C183.3 172.6 179.4 169.2 175.8 168.7C175.1 169.1 174.4 169.4 173.8 169.8C177.6 171.6 180.7 174.5 182.9 178.2C183.1 178.5 183.1 178.9 182.9 179.2C182.3 180 181.7 180.9 181.1 181.7C180.6 182.4 179.5 182.3 179.3 181.5C179.2 181.3 179.2 181.2 179.1 181C178.8 180.6 178.6 180.2 178.5 179.7C176.7 176.4 172.9 173.1 169.4 172.4C168.7 172.9 167.9 173.3 167.2 173.8C167.2 174.1 167.2 174.5 167.2 174.8C167.2 175.9 165.6 176.1 165.3 175.2C162.8 177 160.5 179 158.3 181.3C147.7 192.2 148.5 206.2 146.6 220.2C146.5 220.8 146 221 145.5 220.9C145.2 221.1 144.8 221 144.5 220.7C142.3 218.1 139.3 216.2 135.9 215.7C133.6 215.3 131.3 215.7 130 217C130.1 217 130.1 217.1 130.2 217.1C132.2 218.6 134.4 219.8 135.9 221.8C136.7 222.8 135.3 224.2 134.5 223.2C133.1 221.4 131.1 220.2 129.2 218.9C129.1 218.9 129.1 218.8 129 218.7C128.8 219.5 128.8 220.5 129 221.6C129 221.6 129 221.6 129 221.7C130.4 223.1 132 224.3 133.9 225.1C135.1 225.6 134.6 227.5 133.4 227C132.4 226.6 131.4 226.1 130.5 225.4C134.3 232.5 143 236.7 150.7 232.1C151.8 231.4 152.8 233.2 151.7 233.8C150.5 234.6 149.2 235.1 147.8 235.4C148.9 239.3 153.5 242.1 157.4 240.9C157.6 240.8 157.8 240.9 158 240.9C158.6 240.3 159.2 239.6 159.8 238.8C160.6 237.8 162.3 238.8 161.5 239.8C160.4 241.2 159.3 242.4 158.1 243.4C160.8 244.4 162.9 248.8 163.9 251.4C165.8 249.8 167.5 247.8 168.8 245.3C169.2 244.5 170.3 244.8 170.6 245.5C173.4 252.8 181.1 257 188.6 257.8C188.8 257.8 188.9 257.9 189.1 258C189.4 258 189.6 258 189.9 258C187.5 256 185.4 253.8 184.1 252C182 249.2 178.8 244.2 180.3 240.4C181.4 237.5 184.4 235.1 187.7 236C189.6 236.5 199.9 243.9 198.4 245.2C201.3 242.6 204.3 240.2 207.5 237.9C212 234.7 220.9 227.9 226.4 232.5C227.4 233.3 226 234.7 225 233.9C221.1 230.6 213.7 236 210.4 238.3C206.5 240.9 202.9 243.9 199.4 246.9C199 247.3 198.4 247.3 198 246.9C195.3 244.1 192.7 240.1 189.1 238.5C186.8 237.4 185.1 237.7 184 238.7C184.1 238.7 184.3 238.7 184.4 238.7C186.2 239.3 187.5 240.6 188.1 242.4C188.5 243.6 186.6 244.1 186.2 242.9C185.8 241.8 185 241 183.9 240.6C183.4 240.4 183.2 240 183.2 239.5C182.8 240.1 182.5 240.9 182.4 241.7C184 242.8 185.1 244.4 185.6 246.3C185.9 247.5 184 248.1 183.7 246.8C183.5 245.9 183.1 245.1 182.5 244.4C182.6 245.1 182.9 245.9 183.2 246.5C184.1 248.2 185 249.9 186.3 251.3C188.3 253.5 191.9 256.9 195.6 259.2C195.8 258.6 196.6 258.2 197.3 258.8C199.1 260.3 201.5 261.1 204 261.5C204.1 261.5 204.2 261.5 204.3 261.5C211.4 262.5 220.2 260.4 225.9 258.6C232.9 256.4 239.7 253.3 246 249.4C240.6 246.8 236.7 243 233.6 237.6C232 234.9 228.3 229 231.6 226.2C232.2 225.7 233 225.9 233.3 226.6C235.8 235 240.9 241.5 248.1 246.5C248.2 246.5 248.2 246.5 248.3 246.5C248.5 246.5 248.6 246.6 248.8 246.7C249 246.8 249.2 247.1 249.3 247.3C250.6 246.5 251.8 245.6 253 244.7C247.4 242.1 243.5 238.2 240.3 232.8C238.7 230.1 235 224.2 238.3 221.4C238.9 220.9 239.7 221.1 240 221.8C242.5 230.2 247.6 236.7 254.8 241.7C255.1 241.9 255.2 242.1 255.2 242.4C255.3 242.4 255.4 242.4 255.2 242.4C255.4 242.4 255.6 242.5 255.8 242.6C256.8 241.8 257.8 240.9 258.8 240.1C259.3 239.6 259.8 239.2 260.4 238.7C254.3 236.1 250.2 232.1 246.8 226.4C245.2 223.7 241.5 217.8 244.8 215C245.4 214.5 246.2 214.7 246.5 215.4C249 223.7 253.9 230.1 261 235.1C261.3 235.2 261.6 235.4 261.8 235.5C262.2 235.6 262.6 235.9 263 236.2C263 236.2 263 236.2 263 236.3C279 220.6 290.6 199.4 282.8 176.7C282.4 175.6 283.9 175.1 284.5 175.9C286.4 175.5 288.2 174.8 289.8 173.8C290.1 173.6 290.4 173.3 290.6 173.1C290.4 173.1 290.3 173 290.2 173C290.2 172.7 290.4 172.4 290.8 172.2C291.1 172.1 291.3 172 291.5 171.8C291.5 171.4 291.6 171.1 291.6 170.7C291.7 169.8 292.6 169.8 293.2 170.2L293.3 170.1C293.4 169.7 293.5 169.4 293.5 169C293.6 168.5 294 168.2 294.4 168.3C296.9 164 297.6 156.7 297.5 152.8ZM250.4 193.9C248.3 193.4 246.2 193.1 243.9 193.1C236.5 193.1 225.9 196 225.7 205C225.5 217.4 255.5 200.3 255.1 216.9C255.1 218.2 257.1 218.2 257.1 216.9C257.4 203.7 241.3 207.8 232.8 207.7C232.6 207.7 232.4 207.7 232.1 207.7C232.4 207.6 232.7 207.4 233 207.3C233.4 207.1 233.5 206.8 233.5 206.4C234.7 205.9 235.9 205.4 237 204.8C238.1 204.2 237.1 202.5 236 203.1C233.9 204.2 231.6 205 229.5 206.1C229.3 206.2 229.2 206.3 229.1 206.5H229C228.8 206.5 228.6 206.6 228.4 206.7C228 206.3 227.7 205.7 227.6 204.9C227.9 205 228.2 205 228.5 204.9C231 203.4 233.5 202 236.3 201C237.5 200.6 237 198.6 235.8 199.1C233 200.1 230.4 201.5 227.9 203C229.2 197.9 236 196 240.5 195.5C243.1 195.2 245.7 195.2 248.2 195.6C248.3 195.9 248.6 196.1 249 196.1C249.4 196.1 249.8 196.1 250.3 196.1C250.7 196.2 251.1 196.3 251.4 196.4C253.5 197 255.5 197.8 257.5 198.6C258.3 198.9 261.4 200.6 261.1 199.8C261.6 201 263.5 200.5 263 199.3C262.5 198 259.7 197.1 257.7 196.4C265.1 197.3 272 200.1 277.3 205.7C278.2 206.6 279.6 205.2 278.7 204.3C271.5 196.3 260.9 193.8 250.4 193.9ZM251.1 157.4C251.1 159.1 251.3 160.9 251.8 162.5C253.1 166.9 257.1 165.6 259.8 163.3C260.8 162.5 259.6 160.8 258.6 161.7C257.8 162.4 255.9 164.2 254.6 163.4C253.6 162.8 253.4 161.1 253.3 160.1C253 158 253.1 155.9 253.3 153.8C254.5 152.7 255.7 151.5 256.9 150.5C257.6 149.9 257.3 148.9 256.5 148.7C254 148 251.4 147.3 248.8 147C248.1 146.9 247.4 147.6 247.7 148.3C248.5 150.3 249.6 152.1 251.2 153.5C249.2 157.8 243.7 162.5 239.9 157.3C239.1 156.3 237.5 157.4 238.3 158.5C242.1 163.8 247.8 161.6 251.1 157.4ZM227.3 193.4C223.3 200.3 217.6 206.3 211.3 211.2C206.8 214.7 201.5 219 195.6 219.6C186.3 220.6 174.1 214.5 177.7 203.6C179.9 197.1 187.2 192 192.8 188.7C198.6 185.3 204.8 182.6 210.7 179.4C210.6 178.9 210.8 178.4 211.3 178.2C215.9 176.3 222.7 175.1 226.7 179.2C230.7 183.2 229.9 188.9 227.3 193.4ZM221 199C224.3 195 230.4 187.2 226.4 181.9C223.8 178.4 219.7 178.1 215.8 178.9C215.7 178.9 215.7 179 215.6 179C205.6 184.7 193.7 188.5 185.3 196.6C181.5 200.3 176.3 206.3 180.2 211.8C183.1 215.8 188.3 217.9 193.2 217.7C204.1 217.3 214.6 206.9 221 199Z" fill="#333333"/>
<path d="M329.4 99.2C324.8 96.9 321.7 101.4 320.4 103.7C318.9 106 318 108.6 316.7 111.1C316.7 111.1 316.7 111.1 316.7 111.2C315.4 113.5 314.2 115.5 314.3 115.6C313.6 116.8 312.9 118.1 312.2 119.3C308.9 125.2 305.6 130.9 303.1 137.1C293.9 160.5 285 183.2 272.1 204.9C259.9 225.5 246.2 245.2 232.7 265C231 267.5 229.3 269.9 227.7 272.4C227.8 272.4 228 272.5 228.1 272.5C228.1 273 228.4 273.5 229.1 273.5C231.8 273.4 234.2 274.9 236.9 275.2C237.2 275.2 237.4 275.1 237.6 275H237.7C238.1 274.4 238.5 273.8 238.9 273.2C239.1 273.1 239.3 273.1 239.4 273C240.1 271.6 240.8 270.2 241.6 268.9C241.7 268.8 241.8 268.7 241.9 268.7C242.5 267.8 243.1 266.9 243.7 266.1C257.9 245.3 272.3 224.5 285 202.7C297.1 181.9 305.6 159.9 314.2 137.6C316.6 131.5 323 120.7 323 120.8C323.7 119.8 328.2 111.9 329.5 109.4C330.4 107.8 331.2 106.1 331.5 104.4C332 102.7 331.3 100.2 329.4 99.2Z" fill="#E08F13"/>
<path d="M329.4 99.2C324.8 96.9 321.7 101.4 320.4 103.7C318.9 106 318 108.6 316.7 111.1C316.7 111.1 316.7 111.1 316.7 111.2C315.4 113.5 314.2 115.5 314.3 115.6C313.6 116.8 312.9 118.1 312.2 119.3C308.9 125.2 305.6 130.9 303.1 137.1C293.9 160.5 285 183.2 272.1 204.9C259.9 225.5 246.2 245.2 232.7 265C231 267.5 229.3 269.9 227.7 272.4C227.8 272.4 228 272.5 228.1 272.5C228.1 273 228.4 273.5 229.1 273.5C231.8 273.4 234.2 274.9 236.9 275.2C237.2 275.2 237.4 275.1 237.6 275H237.7C238.1 274.4 238.5 273.8 238.9 273.2C239.1 273.1 239.3 273.1 239.4 273C240.1 271.6 240.8 270.2 241.6 268.9C241.7 268.8 241.8 268.7 241.9 268.7C242.5 267.8 243.1 266.9 243.7 266.1C257.9 245.3 272.3 224.5 285 202.7C297.1 181.9 305.6 159.9 314.2 137.6C316.6 131.5 323 120.7 323 120.8C323.7 119.8 328.2 111.9 329.5 109.4C330.4 107.8 331.2 106.1 331.5 104.4C332 102.7 331.3 100.2 329.4 99.2ZM327.8 108.3C327.8 108.3 327.4 108.7 327.2 109.1C325.3 113.5 322.8 117.6 320.2 121.7C317.3 126.8 314.6 131.8 312.4 137.2C303.2 160.6 294.3 183.3 281.4 205C272.3 220.5 262.3 235.4 252.2 250.3C252.2 250.4 252.1 250.4 252.1 250.5C252.1 250.6 252 250.6 252 250.7C248.7 255.5 245.4 260.3 242.1 265.2C240.7 267.2 239.3 269.2 238 271.2C237.6 271.9 237.1 272.6 236.7 273.3C234.7 273 232.8 272.1 230.8 271.8C232.1 269.9 233.4 268.1 234.6 266.2C248.8 245.4 263.2 224.6 275.9 202.8C288 182 296.5 160 305.1 137.7C307.9 130.5 312 123.9 315.8 117.2C317 115.1 319 112.2 320.5 109.3C320.6 109.3 321.5 107.3 321.4 107.3V107.2C322.2 105.7 323.1 104.2 323.9 102.7C324.9 101.8 326 101.1 327.6 101C331 100.6 329.5 104.9 327.8 108.3Z" fill="#333333"/>
<path d="M232.2 276.1C231.8 275.9 231.4 275.8 230.9 275.7C230.5 275.7 230.1 276 229.9 276.4C229.8 276.8 229.7 277.5 230 277.8C230 277.9 230.1 277.9 230.1 277.9C230.1 277.9 230.1 277.9 230.2 278C230.2 278 230.2 278.1 230.3 278.1C230.6 278.4 231 278.6 231.4 278.6C231.9 278.6 232.4 278.1 232.4 277.6V277.5C232.4 277.4 232.5 277.4 232.5 277.4C232.8 277 232.7 276.3 232.2 276.1Z" fill="#333333"/>
<path d="M255.9 239.3C255.8 239.4 255.7 239.4 255.6 239.5C255.5 239.5 255.5 239.5 255.4 239.5C255.3 239.5 255.2 239.6 255.1 239.6C255.1 239.6 254.7 239.7 254.9 239.7C254.4 239.8 253.9 240.1 253.9 240.7C253.9 240.8 253.9 240.9 254 241.1C253.6 242 254.8 243 255.6 242.2C255.7 242.2 255.9 242.1 256 242C256 242 256 242 256.1 242C256.3 241.9 256.5 241.9 256.7 241.8C257.2 241.5 257.5 240.9 257.5 240.3C257.5 239.4 256.6 239 255.9 239.3Z" fill="#333333"/>
<path d="M214.2 305.4C214.2 304.9 213.7 304.4 213.2 304.4C212.9 304.4 212.7 304.5 212.5 304.5C212.4 304.5 212.2 304.5 212.1 304.6C211.8 304.7 211.6 305.1 211.4 305.3V305.4C211.4 305.5 211.3 305.6 211.3 305.7C211.3 305.8 211.3 305.9 211.3 306C211.3 306.5 211.7 307 212.2 307.1C212.4 307.2 212.6 307.3 212.8 307.3C213.4 307.3 214.1 306.9 214.2 306.4C214.2 306.1 214.2 305.8 214.2 305.4Z" fill="#333333"/>
<path d="M423.5 50.8C423.4 45.3 421.9 40 419.4 35.1C418 31.4 416.1 27.9 413.7 24.7C408 17.4 399 14.7 390 14.7C389.8 14.7 389.7 14.7 389.6 14.8C382.9 14.5 376.2 16.6 370.3 22C357.6 31.2 352.6 46.3 356.8 61.6C360.8 76.1 372.9 86.9 388.1 88.3C404.8 89.8 421 76.9 423.6 60.5C424 57.2 424 54 423.5 50.8Z" fill="#EDD019"/>
<path d="M424.7 45.8001C423.4 36.0001 419.2 26.5001 411.5 20.1C404 13.9001 393.5 11.9001 384 14.0001C383.8 13.8001 383.5 13.6 383.1 13.7C350.8 19.1 342.2 70.3001 371.9 85.1001C387.4 92.8001 409.7 89.4 420 74.9C425.7 66.8 425.9 55.2001 424.7 45.8001ZM413.7 78.9C406.3 85.6 395.4 87.5001 385.7 86.7001C366.6 85.2001 354.9 70.0001 355.5 51.4001C355.9 39.6001 361.5 27.7001 370.9 20.9001C371.1 21.5001 371.9 21.9001 372.6 21.4001C382.5 13.4001 397.5 13.4 408.1 20.2C418 26.6 422.2 38.5001 423 49.8001C423.9 60.5001 421.9 71.5 413.7 78.9ZM346 61.7C342.9 61.7 339.8 62.3001 336.7 62.4001C335.4 62.4001 335.4 60.4001 336.7 60.4001C339.8 60.4001 342.9 59.8 346 59.7C347.3 59.6 347.3 61.6 346 61.7ZM339.2 44.5C341.8 45.8 344.5 46.3001 347.4 46.4001C348.7 46.4001 348.7 48.4001 347.4 48.4001C344.2 48.4001 341.2 47.7001 338.2 46.3001C337 45.6001 338 43.9 339.2 44.5ZM351.2 74.9C348.9 76.4 346.3 77.6001 343.6 78.3001C342.4 78.6001 341.8 76.7 343.1 76.4C345.6 75.7 348 74.6001 350.2 73.2001C351.2 72.4001 352.2 74.2 351.2 74.9ZM364 85.4C361.3 87.5 359.5 90.5001 358.3 93.6001C357.8 94.8001 355.9 94.3001 356.4 93.1001C357.8 89.7001 359.7 86.3001 362.7 84.0001C363.6 83.2001 365.1 84.6 364 85.4ZM385.6 91.1001C386.4 94.3001 386.9 97.4001 387 100.7C387 102 385 102 385 100.7C385 97.6001 384.4 94.6001 383.7 91.6001C383.4 90.3001 385.3 89.8001 385.6 91.1001ZM409.5 96.8001C410.1 97.9001 408.4 99.0001 407.8 97.8001C406.5 95.3001 405.1 92.9001 404.4 90.2001C404.1 89.0001 406 88.4001 406.3 89.7001C407 92.3001 408.3 94.5001 409.5 96.8001ZM427.7 83.6001C425.6 82.9001 423.5 82.2001 421.9 80.7001C421 79.8001 422.4 78.4001 423.3 79.3001C424.7 80.6001 426.5 81.1001 428.2 81.7001C429.5 82.1001 429 84.0001 427.7 83.6001ZM436 64.3001H428.7C427.4 64.3001 427.4 62.3001 428.7 62.3001H436C437.3 62.3001 437.3 64.3001 436 64.3001ZM351.1 31.6C348.2 30.8 345.5 29.5 342.9 28.2C341.7 27.6 342.8 25.9001 343.9 26.5001C346.4 27.8001 348.9 29 351.7 29.7C352.8 30 352.3 32 351.1 31.6ZM363 5.60005C362.7 4.40005 364.6 3.80005 364.9 5.10005C365.6 7.70005 366.8 10.1001 368.6 12.0001C369.5 12.9001 368.1 14.3001 367.2 13.4001C365.2 11.2001 363.8 8.50005 363 5.60005ZM385 7.10005C385.7 5.00005 385.9 2.80005 387.1 0.900052C387.8 -0.199948 389.5 0.800052 388.8 1.90005C387.7 3.70005 387.5 5.70005 386.9 7.70005C386.6 8.80005 384.6 8.30005 385 7.10005ZM405.5 11.1C407.2 9.90005 408.4 8.30005 409 6.40005C409.4 5.20005 411.4 5.70005 410.9 6.90005C410 9.30005 408.6 11.4001 406.4 12.8001C405.4 13.6001 404.4 11.9 405.5 11.1ZM424.8 23.8001C426.3 23.0001 428 22.5001 429.3 21.3001C430.2 20.4001 431.6 21.8 430.7 22.7C429.3 24 427.5 24.7001 425.8 25.5001C424.7 26.1001 423.7 24.4001 424.8 23.8001ZM437.6 43.6C435.4 44.3 433 44.9 430.7 45C429.4 45 429.4 43 430.7 43C432.9 43 435 42.4 437.1 41.7C438.3 41.3 438.8 43.2 437.6 43.6ZM401.5 70.6001C386.3 82.5001 366.6 68.3 366.4 51C366.2 36.1 376.1 19.5001 392.6 20.3001C393.9 20.4001 393.9 22.4001 392.6 22.3001C375.9 21.5001 365.6 40.7 368.9 55.6C370.9 64.8 378.8 73.2 389 72.9C399.6 72.6 408.2 63.4 410.4 53.2C412.1 45.1 409.5 33.2 400.2 30.7C388.9 27.8 374.8 39.4001 380.6 51.3001C384.1 58.5001 397.9 63.5001 402.3 54.3001C404.6 49.5001 402.8 42.6 396.8 41.7C393.8 41.2 390.8 42.5001 389.4 45.4001C388.8 46.6001 387.9 48.7 388.5 50.1C392.2 52.1 393.7 51.4 393 48C391.7 48 391.7 46 393 46C399.4 45.8 393.6 56.9 388.5 53.1C383.2 49.2 388.7 40 394.2 39.5C401.9 38.8 408 47.1 404.5 54.2C401.1 61.1 392.7 62.6001 386.2 59.3001C367.8 50.1001 382.6 22.3 400.8 28.6C419.4 35.3 413.8 61.0001 401.5 70.6001Z" fill="#333333"/>
<path d="M50.1001 258.4C50.1001 258.3 50.1001 258.2 50.1001 258.1H50.2001C50.2001 258.2 50.2001 258.3 50.1001 258.4Z" fill="#333333"/>
<path d="M362.7 310.4C362.4 306.3 361.3 302.4 359.7 298.6C359 296.8 356.9 291 354.7 290.3C353.8 290 352.9 290.3 352 290.5C349.1 291.1 346.3 291.4 343.3 291.5C338 291.6 331.9 291.5 326.8 290.1C326.7 290.1 326.5 290.1 326.4 290.1C326 290 325.6 290.1 325.4 290.6C325.1 291.2 324.8 291.9 324.4 292.6C318.6 302.3 317.5 317 324.7 326.1C324.9 326.4 325.2 326.5 325.5 326.4C328.8 330.1 333.4 332.2 338.7 332.7C342.9 334.3 349.9 330.7 353.5 328.7C359.7 325.1 363.1 317 362.7 310.4Z" fill="#92806B"/>
<path d="M362.4 271.4C360.6 269.9 358.9 268.5 356.7 267.5C356.3 267.3 355.8 267.6 355.6 267.9C353.4 272 351.4 276.3 349.8 280.7C349.7 280.9 349.6 281.2 349.5 281.6C348.2 284.1 347 286.7 346.1 289.4C345.3 290 345.8 291.5 346.9 291.2C348 290.8 348.8 289.7 349.4 288.4C350.5 286.6 351.3 284.7 352 282.7C352.2 282.1 352.5 280.9 352.9 279.7C353.8 278 354.8 276.4 355.8 274.7C357.3 272.3 358 273.6 360 274.4C361.2 274.9 362.1 273.7 362.6 272.8C362.7 272.3 362.7 271.7 362.4 271.4Z" fill="#EDD019"/>
<path d="M331.9 273.1C328.4 271.6 325.2 268 321.1 268.1C320.8 268.1 320.6 268.2 320.5 268.3C320.3 268.5 320.1 268.7 320.1 269C320 271 318.5 272.9 317.6 274.7C316.6 276.8 315.6 279 315.6 281.3C315.6 282.2 316.4 282.5 317 282.2C322.2 283.4 328.9 277.8 332.3 274.8C332.9 274.2 332.5 273.4 331.9 273.1Z" fill="#E1395B"/>
<path d="M390.9 326.4C384.2 323.9 377.2 323.3 370.1 324.2C364.5 324.9 359.9 326.6 355.2 328.6C358.5 326.2 361.1 322.9 362.8 318.8C366.6 309.6 361.5 297.6 356.5 289.9C356.2 289.5 355.8 289.4 355.4 289.5C355.2 289.4 355 289.4 354.7 289.4C353.2 289.8 351.8 290.1 350.3 290.2C352.6 285 354.9 279.7 357.2 274.4C358 274.8 358.7 275.4 359.5 275.8C359.8 275.9 360.1 275.9 360.3 275.9C360.7 276.2 361.4 276.3 361.7 275.7C362.4 274.6 363.1 273.5 363.7 272.4C363.9 272 363.8 271.7 363.7 271.4C363.8 271 363.6 270.5 363.1 270.3C360.8 269.4 358.9 267.5 356.8 266.1C356.3 265.8 355.8 266 355.5 266.4C355.4 266.5 355.3 266.5 355.2 266.6C349.5 272.8 347.6 283 344.1 290.5C342.3 290.5 340.4 290.4 338.6 290.3C336.2 290.2 333.9 289.7 331.7 289.4C330.8 286.4 329 283.2 327.6 280.4C328.7 279.9 329.7 279.3 330.6 278.6C331.1 278.9 331.7 279.3 332.3 279.5C333.5 280.1 334.5 278.4 333.3 277.8C333 277.6 332.6 277.4 332.3 277.2C333 276.6 333.6 276 334.2 275.4C335.2 275.9 336.2 276.4 337.3 276.7C338.5 277.2 339.1 275.2 337.9 274.8C332.5 272.8 327.8 269.3 322.4 267.2C322.2 266.4 320.9 266.2 320.4 267.2C318.4 271.9 315.8 276.5 314.6 281.5C314.1 281.8 314 282.5 314.3 283C314.3 283.2 314.2 283.5 314.2 283.7C314 285 316 285 316.2 283.7C316.2 283.6 316.3 283.4 316.3 283.3C317.6 283.3 318.9 283.1 320.2 282.8C320.2 283 320.2 283.2 320.1 283.4C319.9 284.7 321.8 285.2 322 284C322.1 283.5 322.2 282.9 322.2 282.4C323.3 282.1 324.4 281.7 325.5 281.2C326.8 283.8 328.4 286.4 329.3 289.1C327.9 289 326.4 289.1 324.9 289.4C324.5 289.4 324 289.5 323.9 290.1C320.5 300.8 315.5 310.9 320.4 322C322.4 326.4 326 329.6 330.3 331.5C328.7 331.2 327.1 330.8 325.6 330.4C320.9 329.2 315.1 326.9 310.7 330.1C309.7 330.8 310.6 332.6 311.7 331.8C316.4 328.5 323.5 332 328.5 333.1C334.1 334.3 340.2 334.8 345.9 334C352.8 333 358.6 328.2 365.5 326.9C373.8 325.3 382.3 325.4 390.3 328.3C391.5 328.7 392.1 326.8 390.9 326.4ZM320.4 280.7C319.1 281 317.9 281.2 316.6 281.2C317.5 277.8 319 274.6 320.4 271.5C320.6 274.6 320.7 277.7 320.4 280.7ZM332.2 274.4C331.7 275 331 275.5 330.4 276C328.1 274.2 326.1 272 323.9 270.1C326.7 271.3 329.4 272.9 332.2 274.4ZM322.4 280.2C322.6 278 322.6 275.8 322.5 273.5C323.3 275.4 323.9 277.4 324.7 279.3C323.9 279.6 323.2 279.9 322.4 280.2ZM324.6 273.4C325.9 274.7 327.3 276.1 328.7 277.2C328 277.7 327.3 278.1 326.5 278.5C325.8 276.8 325.2 275.1 324.6 273.4ZM355 291.3C359.4 298.2 363.2 307.8 361.5 315.9C359.9 323.3 353.7 328.4 346.7 330.5C349.3 326.7 349.6 321.9 349.9 317.4C350.5 308.9 351.6 300.6 348.8 292.4C350.9 292.2 353 291.9 355 291.3ZM358.8 272.9C359.2 272.2 359.5 271.4 359.8 270.7C360.4 271.1 361 271.4 361.6 271.7C361.2 272.5 360.7 273.2 360.3 273.9C359.8 273.6 359.3 273.3 358.7 272.9C358.8 273 358.8 273 358.8 272.9ZM356.3 268.2C356.9 268.6 357.5 269.1 358.1 269.5C358.1 269.5 358.1 269.5 358 269.6C357.5 270.3 357.1 270.9 356.7 271.7C356.2 271.3 355.8 270.9 355.2 270.6C355 270.5 354.9 270.5 354.7 270.5C355.2 269.6 355.7 268.8 356.3 268.2ZM353.7 272.1C354.2 272.6 354.8 273 355.4 273.3C355.2 273.8 355 274.2 354.8 274.7H354.7C354.5 274.5 354.3 274.4 354 274.4H352.8C353 273.5 353.4 272.8 353.7 272.1ZM351.9 276.4C351.9 276.4 351.9 276.5 352 276.5C352.4 277 353.1 277.2 353.8 277.2C353.4 278 353.1 278.8 352.7 279.6C352.5 279.5 352.3 279.5 352.1 279.5C351.6 279.6 351.2 279.6 350.7 279.6C351.1 278.6 351.5 277.5 351.9 276.4ZM349.7 282C349.9 282.2 350.3 282.4 350.7 282.3C351 282.2 351.3 282.2 351.6 282.1C351.1 283.3 350.6 284.5 350 285.7C349.8 285.5 349.6 285.4 349.3 285.4H349.2C348.9 285.4 348.6 285.4 348.3 285.5C348.8 284.4 349.2 283.2 349.7 282ZM346.8 288.9C346.9 288.9 346.9 288.9 347 288.9C347.6 288.9 348.1 288.9 348.7 288.8C348.5 289.3 348.3 289.8 348 290.3V290.4C347.4 290.4 346.8 290.5 346.2 290.5C346.4 289.9 346.6 289.4 346.8 288.9ZM346.8 292.4C349.2 299.2 348.9 306.1 348.3 313.2C347.8 319.1 348.3 326.4 343.8 330.9C343.7 331 343.6 331.1 343.6 331.2C343.1 331.3 342.6 331.3 342.2 331.4C342.4 329 342.1 326.7 341.7 324.3C341 320 341.2 315.7 341.4 311.4C341.6 307.4 341.5 303.4 341.4 299.4C341.3 297.1 341.7 294.7 341.4 292.4C343.1 292.5 345 292.5 346.8 292.4ZM331.5 291.2C331.5 291.2 331.6 291.2 331.5 291.2C334.1 291.5 336.6 292 339.2 292.3C339.8 295.1 339.3 298.3 339.3 301.1C339.4 304.5 339.3 308 339.2 311.4C339.1 314.9 338.8 318.3 339.1 321.8C339.3 325.1 340.3 328.2 340 331.6C339.2 331.6 338.5 331.6 337.7 331.5C333.5 323.9 328.8 313.9 328.5 305.1C328.4 301.8 329.1 298.7 330.2 295.7C330.8 294.2 331.5 292.7 331.5 291.2ZM321.3 318.8C317.9 309.4 322.7 300 325.6 291.2C326.9 290.9 328.3 290.9 329.6 291C329.6 291.1 329.6 291.1 329.6 291.2C329.8 293 328.2 295.8 327.6 297.5C326.6 300.3 326.4 304.1 326.7 307C327.6 314.9 331.4 323.9 335.3 331.1C329 329.6 323.7 325.3 321.3 318.8Z" fill="#333333"/>
<path d="M441.7 223.7C426.5 228.2 409.9 225.7 394.4 225.6C385.6 225.5 376.9 225.7 368 225.1C358.5 224.5 349.1 224.3 339.7 225.7C338.4 225.9 339 227.8 340.2 227.6C350.1 226.2 359.9 226.6 369.8 227.2C378.5 227.7 387.1 227.5 395.8 227.6C411.1 227.7 427.2 230.1 442.2 225.6C443.5 225.3 443 223.3 441.7 223.7Z" fill="#333333"/>
<path d="M91.1 230.4C82 231.7 72.9 230.8 63.8 230.1C57.3 229.6 50.7999 229.7 44.1999 229.7C34.3999 229.8 21.3 229.3 12.8 235.2C11.7 235.9 12.7 237.7 13.8 236.9C22.9 230.6 37.1999 231.7 47.6999 231.7C62.2999 231.7 77.1 234.5 91.5 232.4C92.9 232.1 92.3 230.2 91.1 230.4Z" fill="#333333"/>
<path d="M64.0002 291.7H63.3002C62.0002 291.7 62.0002 293.7 63.3002 293.7H64.0002C65.3002 293.7 65.3002 291.7 64.0002 291.7Z" fill="#333333"/>
<path d="M122.5 293.7C114.7 292.4 107.1 290.2 99.3 289.2C91.3 288.1 83.6 290.8 75.6 291C74.3 291 74.3 293 75.6 293C83 292.8 90.2 290.6 97.6 291C105.8 291.4 113.9 294.3 122 295.6C123.2 295.8 123.8 293.9 122.5 293.7Z" fill="#333333"/>
<path d="M315.5 302.8C309.5 303.4 303.4 302.4 297.5 303.3C291.2 304.2 285.3 307.2 278.8 307C277.5 307 277.5 309 278.8 309C284.4 309.2 289.5 307.1 294.9 305.8C301.6 304.1 308.8 305.5 315.6 304.8C316.8 304.6 316.8 302.6 315.5 302.8Z" fill="#333333"/>
<path d="M234.5 325.5C228.2 325.5 221.9 325.3 215.6 325.8C211.5 326.2 204.8 326.7 202.7 331C200.8 330.5 198.9 330.1 197 329.7C192.1 328.6 186.5 329 182.1 331.6C181 332.3 182 334 183.1 333.3C188.5 330 194.7 331 200.4 332.6C206.7 334.3 213.1 335.6 219.6 335.9C220.9 336 220.9 334 219.6 333.9C214.5 333.6 209.6 332.6 204.8 331.4C207.5 327.4 216.1 327.6 220.2 327.4C225 327.2 229.8 327.3 234.7 327.4C235.8 327.5 235.8 325.5 234.5 325.5Z" fill="#333333"/>
<path d="M63.9999 256H61.9999C60.6999 256 60.6999 258 61.9999 258H63.9999C65.2999 258 65.2999 256 63.9999 256Z" fill="#333333"/>
<path d="M47 257C41.1 257.1 35.2 257.9 29.3 257C28 256.8 27.5 258.7 28.8 258.9C34.9 259.8 40.9 259 47.1 258.9C48.3 259 48.3 257 47 257Z" fill="#333333"/>
<path d="M69.9999 266H54.9999C53.6999 266 53.6999 268 54.9999 268H69.9999C71.2999 268 71.2999 266 69.9999 266Z" fill="#333333"/>
<path d="M35.6999 302C30.5999 303.9 25.2999 304 19.9999 304C18.6999 304 18.6999 306 19.9999 306C25.4999 306 30.9999 305.9 36.2999 304C37.4999 303.5 36.8999 301.6 35.6999 302Z" fill="#333333"/>
<path d="M147.7 302C144.1 302.8 140.6 303 137 303C135.7 303 135.7 305 137 305C140.8 305 144.5 304.9 148.3 304C149.5 303.7 149 301.7 147.7 302Z" fill="#333333"/>
<path d="M155 306C143.6 306.9 132.1 305.2 120.7 307C119.4 307.2 120 309.1 121.2 308.9C132.4 307.1 143.7 308.8 154.9 307.9C156.3 307.9 156.3 305.9 155 306Z" fill="#333333"/>
<path d="M378 250C359.2 250.8 340.3 247.4 321.7 252C320.4 252.3 321 254.2 322.2 253.9C340.6 249.3 359.3 252.8 377.9 251.9C379.3 251.9 379.3 249.9 378 250Z" fill="#333333"/>
<path d="M426.8 266.1C419 264.3 411.4 265.1 403.5 266.1C402.2 266.3 402.2 268.3 403.5 268.1C411.2 267.1 418.6 266.3 426.2 268.1C427.5 268.3 428 266.4 426.8 266.1Z" fill="#333333"/>
<path d="M420 294H416C414.7 294 414.7 296 416 296H420C421.3 296 421.3 294 420 294Z" fill="#333333"/>
<path d="M389 297C387.6 297 386.4 297.3 385.3 298.3C384.4 299.2 385.8 300.6 386.7 299.7C387.4 299.1 388.1 299 389 299C390.3 299 390.3 297 389 297Z" fill="#333333"/>
<path d="M414 293C405.3 293.1 396.6 293.9 388 295C386.7 295.2 386.7 297.2 388 297C396.6 295.9 405.3 295.1 414 295C415.3 295 415.3 293 414 293Z" fill="#333333"/>
<path d="M345 257C345 257.2 345 257.3 345 257.5C345 257.5 345 257.5 345 257.6C345 257.6 345 257.6 345 257.7C345.1 257.5 344.9 257.8 344.9 257.8C344.7 258 344.5 258.2 344.4 258.4C343.5 259.3 344.9 260.7 345.8 259.8C346.2 259.4 346.6 259.1 346.8 258.6C347.1 258.1 347.1 257.6 347.1 257.1C347 255.7 345 255.7 345 257Z" fill="#333333"/>
<path d="M417 250C415.7 250 415.7 252 417 252C418.3 252 418.3 250 417 250Z" fill="#333333"/>
<path d="M439 279C437.7 279 437.7 281 439 281C440.3 281 440.3 279 439 279Z" fill="#333333"/>
<path d="M410.7 305.3L409.7 304.3C408.8 303.4 407.4 304.8 408.3 305.7L409.3 306.7C410.2 307.6 411.6 306.2 410.7 305.3Z" fill="#333333"/>
<path d="M373 335C371.7 335 371.7 337 373 337C374.3 337 374.3 335 373 335Z" fill="#333333"/>
<path d="M342 340C340.7 340 340.7 342 342 342C343.3 342 343.3 340 342 340Z" fill="#333333"/>
<path d="M324 339H322C320.7 339 320.7 341 322 341H324C325.3 341 325.3 339 324 339Z" fill="#333333"/>
<path d="M342 346C341.7 346 341.3 346 341.1 346H341C340.9 344.8 339 344.8 339 346.1C339 346.8 339.3 347.5 340 347.8C340.6 348.1 341.3 348.1 342 348.1C343.3 348 343.3 346 342 346Z" fill="#333333"/>
<path d="M353 337C351.4 337.1 350.3 338.3 349.3 339.3C348.4 340.2 349.8 341.6 350.7 340.7C351.3 340.1 352.1 339 353 339C354.3 338.9 354.3 336.9 353 337Z" fill="#333333"/>
<path d="M366 336H364C362.7 336 362.7 338 364 338H366C367.3 338 367.3 336 366 336Z" fill="#333333"/>
<path d="M285 311H284C282.7 311 282.7 313 284 313H285C286.3 313 286.3 311 285 311Z" fill="#333333"/>
<path d="M295 310C294.1 310 293.4 309.9 292.7 309.3C291.8 308.4 290.3 309.8 291.3 310.7C292.4 311.7 293.6 312 295 312C296.3 312 296.3 310 295 310Z" fill="#333333"/>
<path d="M304.7 310.3L303.7 309.3C302.8 308.4 301.4 309.8 302.3 310.7L303.3 311.7C304.2 312.6 305.6 311.2 304.7 310.3Z" fill="#333333"/>
<path d="M275 304C275 303.9 275 303.9 275 304C273.7 304.1 273.7 306.1 275 306C276.1 305.9 277 305.1 277 304C277 302.7 275 302.7 275 304Z" fill="#333333"/>
<path d="M266 316C264.7 316 264.7 318 266 318C267.3 318 267.3 316 266 316Z" fill="#333333"/>
<path d="M188 341H186C184.7 341 184.7 343 186 343H188C189.3 343 189.3 341 188 341Z" fill="#333333"/>
<path d="M208 345C206.7 345 206.7 347 208 347C209.3 347 209.3 345 208 345Z" fill="#333333"/>
<path d="M201 335C199.7 335 199.7 337 201 337C202.3 337 202.3 335 201 335Z" fill="#333333"/>
<path d="M212 345C210.7 345 210.7 347 212 347C213.3 347 213.3 345 212 345Z" fill="#333333"/>
<path d="M228 329H227C225.7 329 225.7 331 227 331H228C229.3 331 229.3 329 228 329Z" fill="#333333"/>
<path d="M146 316H144C142.7 316 142.7 318 144 318H146C147.3 318 147.3 316 146 316Z" fill="#333333"/>
<path d="M164 310C162.7 310 162.7 312 164 312C165.3 312 165.3 310 164 310Z" fill="#333333"/>
<path d="M94.9999 298H93.9999C92.6999 298 92.6999 300 93.9999 300H94.9999C96.2999 300 96.2999 298 94.9999 298Z" fill="#333333"/>
<path d="M146 285C144.7 285 144.7 287 146 287C147.3 287 147.3 285 146 285Z" fill="#333333"/>
<path d="M22.9999 297C21.6999 297 21.6999 299 22.9999 299C24.2999 299 24.2999 297 22.9999 297Z" fill="#333333"/>
<path d="M34.9999 282C33.6999 282 33.6999 284 34.9999 284C36.2999 284 36.2999 282 34.9999 282Z" fill="#333333"/>
<path d="M86.9999 242C85.6999 242 85.6999 244 86.9999 244C88.2999 244 88.2999 242 86.9999 242Z" fill="#333333"/>
<path d="M51.9998 243C51.0998 243 50.3998 242.9 49.6998 242.3C48.7998 241.4 47.2998 242.8 48.2998 243.7C49.3998 244.7 50.5998 245 51.9998 245C53.2998 245 53.2998 243 51.9998 243Z" fill="#333333"/>
<path d="M198 284H197C195.7 284 195.7 286 197 286H198C199.3 286 199.3 284 198 284Z" fill="#333333"/>
<path d="M241 302C239.7 302 239.7 304 241 304C242.3 304 242.3 302 241 302Z" fill="#333333"/>
<path d="M260.2 37.8C258.7 37.2 257.3 37.0999 255.7 37.0999C253.4 37.1999 253.9 36.9999 252.1 35.6999C249.7 33.8999 247.5 34.5 245.1 35.9C242.4 29.7 236.4 29.4 233.2 36C228.2 35.8 223.6 39.7999 227.4 43.6999C225 45.0999 224.8 47.7999 227.1 50.0999C230.3 53.4999 234.5 51.8 237.2 49C239.8 52.5 245.6 53.6 247.6 50.5C251.5 55.1 262.7 52.8 259.8 45.9C263.5 44 265.5 39.8 260.2 37.8ZM258.7 44C257.9 43.2 256.4 44.0999 257.1 45.0999C261.8 51.8999 249.2 52.9 248.4 47.3C248.4 47.1 248.4 46.8999 248.3 46.5999C248.1 45.3999 246.3 45.2999 246.3 46.5999C247.1 52.7999 239.8 50.2 238.2 46.8C237.8 46.1 236.9 46.3 236.5 46.8C234.8 49.2 232.5 50.7 229.6 49.4C227.3 48.4 226.9 45.6 229.6 44.9C230.5 44.7 230.5 43.4999 229.8 43.0999C229.7 41.4999 229.6 39.9 229.6 38.3C231.5 37.5 233.3 37.5 235.1 38.3C236.3 38.7 236.8 36.8 235.6 36.4C235.5 36.4 235.4 36.3 235.3 36.3C236 34.8 236.9 33.6 238.6 32.9C241.6 31.7 243.1 35.8999 243.7 37.5999C243.9 38.1999 244.6 38.5999 245.2 38.1999C248.3 36.1999 250 35.7999 252.5 39.1999C252.8 39.5999 253.2 39.7999 253.6 39.6999C254.6 39.2999 255.7 39.0999 256.8 39.0999C257.4 39.1999 258 39.3 258.7 39.4C261.3 39.9 261.3 41.5 258.7 44Z" fill="#333333"/>
<path d="M42.7001 177.4C41.3001 172.2 36.9001 172.1 33.0001 175.1C30.3001 170.4 24.7001 171.1 22.9001 175.3C20.1001 171.4 14.4001 172.8 11.5001 177.6C7.2001 177.5 4.7001 180.9 6.5001 185.5C8.2001 189.7 11.5001 190 14.5001 188.4C14.4001 194.3 24.5001 198.3 27.2001 191.6C31.0001 193.9 34.9001 194 37.6001 190.2C40.6001 192.5 44.4001 192.8 47.3001 189.9C48.7001 188.5 48.6001 187.2 47.8001 186.1C51.3001 183.7 49.6001 176 42.7001 177.4ZM43.6001 189.9C41.5001 190.7 39.5001 189.4 38.0001 188C37.5001 187.6 36.7001 187.6 36.4001 188.2C34.2001 192.3 30.3001 191.5 27.1001 189.2C26.6001 188.8 25.8001 189.2 25.6001 189.8C24.1001 196.9 13.3001 191.5 17.4001 186.1C17.6001 185.9 17.8001 185.7 17.9001 185.5C18.7001 184.5 17.4001 183.1 16.5001 184.1C16.2001 184.4 16.0001 184.7 15.7001 185C13.5001 187.4 10.6001 188.8 8.5001 185.3C6.6001 182.2 8.2001 179.5 11.5001 179.6C11.7001 179.7 12.0001 179.8 12.2001 179.7C12.2001 179.7 12.2001 179.7 12.3001 179.7C13.3001 179.9 13.8001 178.8 13.4001 178.2C16.2001 174.2 21.3001 173.5 22.2001 179.7C22.4001 180.8 24.3001 180.6 24.2001 179.4C23.6001 174.1 29.4001 171.2 31.6001 177C31.9001 177.7 32.7001 178 33.3001 177.4C36.0001 175 40.0001 173.9 41.0001 179C41.1001 179.5 41.7001 179.9 42.2001 179.7C47.8001 177.9 49.1001 183.9 45.9001 184.7C45.1001 184.3 44.3001 184 43.5001 183.8C42.6001 183.6 42.1001 184.5 42.3001 185.2C42.2001 185.7 42.4001 186.2 43.0001 186.4C43.6001 186.6 44.2001 186.7 44.7001 186.8C45.5001 187.7 45.3001 189.2 43.6001 189.9Z" fill="#333333"/>
<path d="M411.7 166.5C414 165.8 415.7 164.2 414.9 161.3C414 157.6 409.7 157.5 406.8 158.8C404.3 155.9 401.5 155.7 398.5 157.7C396.7 152.5 390.5 151.5 388.6 157.1C386 155.4 382.3 154.3 380.2 157.3C378.6 159.6 379 161.9 380.2 163.8C378 164.7 377.5 167.3 379.4 170.4C382.6 175.5 387.6 174.7 391.1 171.2C392.4 176.7 400 177 401.7 173C404.1 175.6 407.7 176.1 411.4 173.9C415.2 171.8 414.6 168.4 411.7 166.5ZM408.7 173.1C405.3 174.3 402.7 172.2 401.6 169.1C401.2 167.9 399.2 168.4 399.7 169.6C401.8 175.2 392.4 175.5 393 168.7C393.1 167.6 391.6 167.4 391.1 168.2C389 171.5 385.7 173.7 382.3 170.7C380.2 168.9 379.4 165.9 381.7 165.5C382.2 166 382.8 166.5 383.4 166.9C384.4 167.6 385.3 166.1 384.6 165.4C385 164.9 385 164 384.2 163.8C383.6 163.6 383 163.6 382.4 163.5C381.3 162.3 380.7 160.8 381.5 159C382.9 155.7 387 158.2 388.6 159.4C389.1 159.8 390.1 159.8 390.3 159C391.3 153.4 396.2 154.9 397 159.7C397.1 160.5 398.2 160.6 398.7 160.1C401.1 160.3 403.4 160.4 405.8 160.6C406.1 161 406.7 161.3 407.2 161C408.9 160 410.7 159.5 412.4 160.9C415.5 163.4 410.7 165.1 408.7 165.2C407.4 165.3 407.4 167.3 408.7 167.2C408.9 167.2 409 167.2 409.2 167.2C409.3 167.5 409.5 167.7 409.8 167.9C413.9 169.2 411.7 172 408.7 173.1Z" fill="#333333"/>
</svg>
